<svg width="484" height="401" viewBox="0 0 484 401" fill="none" xmlns="http://www.w3.org/2000/svg">
<path fill-rule="evenodd" clip-rule="evenodd" d="M156.769 102.973C149.096 105.479 141.43 108.312 133.769 111.473C128.508 114.018 123.675 117.185 119.269 120.973C115.802 133.27 114.968 145.603 116.769 157.973C116.903 163.746 117.737 169.413 119.269 174.973C139.397 146.153 167.23 131.32 202.769 130.473C170.083 126.148 142.25 135.982 119.269 159.973C118.805 159.379 118.638 158.712 118.769 157.973C127.248 140.661 140.248 127.828 157.769 119.473C166.257 115.977 175.09 114.144 184.269 113.973C206.537 115.434 228.037 120.267 248.769 128.473C242.596 129.06 236.93 131.06 231.769 134.473C221.453 144.721 211.119 155.054 200.769 165.473C195.325 169.364 189.325 171.864 182.769 172.973C180.246 173.857 177.579 174.691 174.769 175.473C161.769 175.806 148.769 176.14 135.769 176.473C129.907 177.404 124.907 179.904 120.769 183.973C122.498 189.758 124.498 195.424 126.769 200.973C125.221 200.652 124.554 199.652 124.769 197.973C122.868 198.04 121.035 197.706 119.269 196.973C117.4 197.842 116.9 199.008 117.769 200.473C116.941 201.388 115.941 202.054 114.769 202.473C115.769 203.306 116.769 204.14 117.769 204.973C116.958 205.689 116.291 206.523 115.769 207.473C116.651 210.914 116.985 214.414 116.769 217.973C111.579 207.902 107.912 197.235 105.769 185.973C104.453 175.194 103.453 164.527 102.769 153.973C98.9922 152.194 94.9922 151.027 90.7692 150.473C77.4992 150.703 64.4992 149.036 51.7692 145.473C48.4362 143.473 45.1022 141.473 41.7692 139.473C34.0172 131.725 27.0172 123.392 20.7692 114.473C15.4482 109.311 9.11416 105.978 1.76917 104.473C23.8322 96.24 46.4992 93.907 69.7692 97.473C86.0252 101.728 98.1922 111.228 106.269 125.973C112.698 96.092 127.531 71.426 150.769 51.973C168.479 38.949 187.812 28.782 208.769 21.473C184.294 23.016 162.627 31.516 143.769 46.973C125.431 60.614 111.598 77.947 102.269 98.973C105.208 61.918 122.708 34.085 154.769 15.473C173.512 6.92297 193.179 1.92297 213.769 0.47297C232.464 -0.39903 251.131 -0.0650299 269.769 1.47297C256.136 6.77097 245.969 15.938 239.269 28.973C232.858 42.129 226.191 55.129 219.269 67.973C211.043 80.505 199.876 89.339 185.769 94.473C176.269 98.03 166.603 100.863 156.769 102.973Z" fill="#11562E"/>
<path fill-rule="evenodd" clip-rule="evenodd" d="M240.769 14.973C241.794 15.37 241.961 16.036 241.269 16.973C236.537 24.046 232.204 31.379 228.269 38.973C230.016 29.814 234.183 21.814 240.769 14.973Z" fill="#A2C765"/>
<path fill-rule="evenodd" clip-rule="evenodd" d="M209.769 67.9729C202.859 76.6179 194.192 83.1179 183.769 87.4729C170.118 91.8009 156.451 96.1339 142.769 100.473C135.823 103.279 129.157 106.612 122.769 110.473C121.573 111.127 121.573 111.627 122.769 111.973C136.951 105.431 151.618 100.431 166.769 96.9729C166.988 98.1479 166.655 99.1479 165.769 99.9729C162.476 100.449 159.476 101.449 156.769 102.973C146.829 103.109 137.996 106.109 130.269 111.973C128.456 110.864 127.623 111.531 127.769 113.973C126.339 114.052 125.005 113.719 123.769 112.973C122.279 114.599 120.779 116.265 119.269 117.973C118.936 117.64 118.602 117.306 118.269 116.973C115.889 119.374 113.389 119.374 110.769 116.973C111.769 116.306 112.769 115.64 113.769 114.973C111.562 112.326 111.729 109.66 114.269 106.973C115.806 110.279 117.973 110.779 120.769 108.473C120.033 106.452 120.866 104.952 123.269 103.973C123.752 103.025 123.918 102.025 123.769 100.973C127.167 101.331 130.334 100.665 133.269 98.9729C135.346 99.4899 137.346 100.157 139.269 100.973C139.752 100.025 139.918 99.0249 139.769 97.9729C141.091 97.8029 142.258 98.1359 143.269 98.9729C145.404 97.1949 147.904 96.5279 150.769 96.9729C150.769 95.6399 150.769 94.3059 150.769 92.9729C148.742 93.1349 146.742 92.9679 144.769 92.4729C144.247 91.9119 143.914 91.2449 143.769 90.4729C145.212 86.4359 146.045 82.2699 146.269 77.9729C147.131 79.5599 147.798 81.2269 148.269 82.9729C148.602 82.6399 148.936 82.3059 149.269 81.9729C149.183 78.2189 149.349 74.5519 149.769 70.9729C151.102 70.9729 152.436 70.9729 153.769 70.9729C153.769 69.9729 153.769 68.9729 153.769 67.9729C157.559 68.4649 158.225 67.6319 155.769 65.4729C157.128 64.2689 158.128 62.7689 158.769 60.9729C159.853 62.1379 160.686 63.4709 161.269 64.9729C161.354 58.8459 162.521 58.5129 164.769 63.9729C165.92 59.6569 168.586 56.8239 172.769 55.4729C173.33 53.7969 174.33 52.4639 175.769 51.4729C174.009 50.5079 173.675 49.3409 174.769 47.9729C175.747 48.4499 176.58 49.1159 177.269 49.9729C178.703 48.3369 180.536 47.3369 182.769 46.9729C184.037 47.9009 185.37 48.0679 186.769 47.4729C188.324 45.0079 190.324 44.5079 192.769 45.9729C193.52 45.0969 194.02 44.0969 194.269 42.9729C195.606 44.2379 197.106 44.7379 198.769 44.4729C198.247 43.9119 197.914 43.2449 197.769 42.4729C198.982 40.8429 199.815 39.0089 200.269 36.9729C201.336 36.2819 202.503 35.7819 203.769 35.4729C202.859 33.6679 201.859 31.8349 200.769 29.9729C204.007 29.6869 207.174 29.6869 210.269 29.9729C210.769 30.4729 211.269 30.9729 211.769 31.4729C210.028 33.0929 208.194 34.5929 206.269 35.9729C205.779 37.2659 205.612 38.5999 205.769 39.9729C203.064 39.8529 202.397 40.8529 203.769 42.9729C203.292 43.9509 202.626 44.7839 201.769 45.4729C202.938 47.4799 203.604 49.6459 203.769 51.9729C202.436 51.9729 201.102 51.9729 199.769 51.9729C200.67 55.7139 199.337 57.7139 195.769 57.9729C196.121 60.5459 195.621 62.8789 194.269 64.9729C193.89 55.2059 193.056 54.8729 191.769 63.9729C190.436 63.9729 189.102 63.9729 187.769 63.9729C187.926 65.3459 187.759 66.6799 187.269 67.9729C184.729 66.9299 182.395 66.2639 180.269 65.9729C176.954 69.8229 177.454 70.4889 181.769 67.9729C184.587 69.2559 187.421 69.2559 190.269 67.9729C192.347 69.9009 194.514 71.5679 196.769 72.9729C197.436 72.8059 198.102 72.6399 198.769 72.4729C197.752 71.4239 197.585 70.2569 198.269 68.9729C200.076 70.3339 201.076 71.6679 201.269 72.9729C204.068 72.2359 204.235 71.4029 201.769 70.4729C203.582 70.5189 205.248 70.3529 206.769 69.9729C205.841 68.7049 205.674 67.3719 206.269 65.9729C206.979 67.4459 208.145 68.1129 209.769 67.9729Z" fill="#0E572D"/>
<path fill-rule="evenodd" clip-rule="evenodd" d="M150.769 51.973C150.846 50.723 151.513 49.89 152.769 49.473C151.848 47.717 150.681 47.55 149.269 48.973C147.469 48.153 145.635 47.487 143.769 46.973C162.627 31.516 184.294 23.016 208.769 21.473C187.812 28.782 168.479 38.949 150.769 51.973Z" fill="#141D2D"/>
<path fill-rule="evenodd" clip-rule="evenodd" d="M161.769 29.9729C163.648 29.8659 163.981 30.3659 162.769 31.4729C142.649 40.5859 126.483 54.4189 114.269 72.9729C114.301 70.8749 114.968 68.8749 116.269 66.9729C127.912 50.2439 143.079 37.9109 161.769 29.9729Z" fill="#90BB66"/>
<path fill-rule="evenodd" clip-rule="evenodd" d="M280.769 69.973C278.754 71.397 276.421 72.063 273.769 71.973C275.784 70.549 278.117 69.883 280.769 69.973Z" fill="#EEC074"/>
<path fill-rule="evenodd" clip-rule="evenodd" d="M298.769 69.973C301.426 70.408 303.76 71.408 305.769 72.973C302.923 72.921 300.589 71.921 298.769 69.973Z" fill="#F2C577"/>
<path fill-rule="evenodd" clip-rule="evenodd" d="M298.769 69.9729C300.589 71.9209 302.923 72.9209 305.769 72.9729C313.162 76.6999 318.496 82.3659 321.769 89.9729C324.325 97.3879 325.325 105.055 324.769 112.973C323.647 117.874 321.98 122.54 319.769 126.973C318.33 128.833 316.664 130.5 314.769 131.973C310.542 136.836 305.209 139.836 298.769 140.973C289.131 141.698 279.797 140.698 270.769 137.973C262.939 133.143 257.272 126.476 253.769 117.973C250.788 108.734 251.121 99.7339 254.769 90.9729C258.783 82.2919 265.117 75.9589 273.769 71.9729C276.421 72.0629 278.754 71.3969 280.769 69.9729C286.725 68.7289 292.725 68.7289 298.769 69.9729Z" fill="#FAA82A"/>
<path fill-rule="evenodd" clip-rule="evenodd" d="M282.769 77.9729C287.928 77.6549 292.928 78.3209 297.769 79.9729C312.574 86.5629 319.074 97.8959 317.269 113.973C316.756 115 316.256 116 315.769 116.973C315.102 112.973 314.436 108.973 313.769 104.973C308.051 86.7739 295.718 79.2739 276.769 82.4729C273.622 83.3539 270.622 84.5199 267.769 85.9729C267.769 85.3059 267.769 84.6399 267.769 83.9729C272.265 80.5529 277.265 78.5529 282.769 77.9729Z" fill="#FCF2D9"/>
<path fill-rule="evenodd" clip-rule="evenodd" d="M282.769 77.973C286.245 76.83 289.911 76.663 293.769 77.473C295.589 77.673 296.922 78.507 297.769 79.973C292.928 78.321 287.928 77.655 282.769 77.973Z" fill="#F0C16C"/>
<path fill-rule="evenodd" clip-rule="evenodd" d="M267.769 83.973C267.769 84.64 267.769 85.306 267.769 85.973C266.108 88.691 264.108 90.357 261.769 90.973C263.073 88.006 265.073 85.672 267.769 83.973Z" fill="#FAD99C"/>
<path fill-rule="evenodd" clip-rule="evenodd" d="M166.769 96.973C151.618 100.431 136.951 105.431 122.769 111.973C121.573 111.627 121.573 111.127 122.769 110.473C129.157 106.612 135.823 103.279 142.769 100.473C156.451 96.134 170.118 91.801 183.769 87.473C194.192 83.118 202.859 76.618 209.769 67.973C212.74 64.719 215.24 61.053 217.269 56.973C214.696 67.574 208.862 76.074 199.769 82.473C189.168 88.445 178.168 93.278 166.769 96.973Z" fill="#B0CE6D"/>
<path fill-rule="evenodd" clip-rule="evenodd" d="M55.7692 107.973C50.9062 107.654 46.2392 107.987 41.7692 108.973C40.3962 109.13 39.0622 108.963 37.7692 108.473C38.1022 108.14 38.4362 107.806 38.7692 107.473C44.6182 106.655 50.2842 106.821 55.7692 107.973Z" fill="#87AE98"/>
<path fill-rule="evenodd" clip-rule="evenodd" d="M66.7692 107.973C67.1862 107.349 67.8532 107.016 68.7692 106.973C75.4762 108.596 81.8092 111.096 87.7692 114.473C80.9512 112.036 73.9512 109.869 66.7692 107.973Z" fill="#68A15C"/>
<path fill-rule="evenodd" clip-rule="evenodd" d="M19.7692 110.973C20.1662 109.948 20.8322 109.781 21.7692 110.473C24.8662 112.864 27.0322 115.697 28.2692 118.973C25.5662 116.102 22.7332 113.435 19.7692 110.973Z" fill="#82B76B"/>
<path fill-rule="evenodd" clip-rule="evenodd" d="M313.769 104.973C314.436 108.973 315.102 112.973 315.769 116.973C315.4 123.112 312.733 127.112 307.769 128.973C313.146 121.897 315.146 113.897 313.769 104.973Z" fill="#FBE3B3"/>
<path fill-rule="evenodd" clip-rule="evenodd" d="M41.7692 108.973C46.2392 107.987 50.9062 107.654 55.7692 107.973C74.8772 110.111 91.3772 117.778 105.269 130.973C105.228 134.277 104.895 137.61 104.269 140.973C87.8542 122.014 67.0212 111.347 41.7692 108.973Z" fill="#141D2D"/>
<path fill-rule="evenodd" clip-rule="evenodd" d="M152.769 132.973C159.849 129.054 167.516 127.22 175.769 127.473C168.012 129.005 160.346 130.838 152.769 132.973Z" fill="#619B58"/>
<path fill-rule="evenodd" clip-rule="evenodd" d="M152.769 132.973C146.317 136.526 139.984 140.026 133.769 143.473C139.235 138.407 145.568 134.907 152.769 132.973Z" fill="#78AE65"/>
<path fill-rule="evenodd" clip-rule="evenodd" d="M226.769 131.973C227.508 131.842 228.175 132.009 228.769 132.473C225.235 136.342 221.402 139.842 217.269 142.973C216.602 142.306 216.602 141.64 217.269 140.973C220.331 137.741 223.498 134.741 226.769 131.973Z" fill="#8FBD68"/>
<path fill-rule="evenodd" clip-rule="evenodd" d="M90.7692 147.973C80.9042 147.059 70.9042 146.059 60.7692 144.973C52.3602 143.185 45.1932 139.185 39.2692 132.973C38.6022 132.306 38.6022 131.64 39.2692 130.973C47.1372 138.823 56.6372 143.323 67.7692 144.473C76.4492 144.963 85.1162 145.629 93.7692 146.473C95.8772 146.833 97.8772 147.5 99.7692 148.473C96.7942 148.517 93.7942 148.35 90.7692 147.973Z" fill="#88BB6A"/>
<path fill-rule="evenodd" clip-rule="evenodd" d="M60.7692 144.973C70.9042 146.059 80.9042 147.059 90.7692 147.973C81.0612 148.217 71.3952 147.717 61.7692 146.473C61.2132 146.09 60.8802 145.59 60.7692 144.973Z" fill="#265E17"/>
<path fill-rule="evenodd" clip-rule="evenodd" d="M116.769 157.973C117.436 157.973 118.102 157.973 118.769 157.973C118.638 158.712 118.805 159.379 119.269 159.973C142.25 135.982 170.083 126.148 202.769 130.473C167.23 131.32 139.397 146.153 119.269 174.973C117.737 169.413 116.903 163.746 116.769 157.973Z" fill="#141D2D"/>
<path fill-rule="evenodd" clip-rule="evenodd" d="M187.769 168.973C185.102 169.64 182.436 170.306 179.769 170.973C178.701 170.039 177.368 169.705 175.769 169.973C186.558 168.661 195.725 163.995 203.269 155.973C202.723 158.566 201.223 160.733 198.769 162.473C195.215 164.866 191.549 167.033 187.769 168.973Z" fill="#8CBB6B"/>
<path fill-rule="evenodd" clip-rule="evenodd" d="M175.769 169.973C177.368 169.705 178.701 170.039 179.769 170.973C177.173 171.738 174.506 172.072 171.769 171.973C161.588 172.3 151.588 171.967 141.769 170.973C153.021 169.996 164.355 169.662 175.769 169.973Z" fill="#9EC866"/>
<path fill-rule="evenodd" clip-rule="evenodd" d="M141.769 170.973C151.588 171.967 161.588 172.3 171.769 171.973C159.769 172.64 147.769 173.306 135.769 173.973C134.717 174.122 133.717 173.956 132.769 173.473C135.607 172.218 138.607 171.384 141.769 170.973Z" fill="#70A153"/>
<path fill-rule="evenodd" clip-rule="evenodd" d="M187.769 168.973C186.102 170.306 184.436 171.64 182.769 172.973C167.121 173.856 151.455 174.189 135.769 173.973C147.769 173.306 159.769 172.64 171.769 171.973C174.506 172.072 177.173 171.738 179.769 170.973C182.436 170.306 185.102 169.64 187.769 168.973Z" fill="#14501A"/>
<path fill-rule="evenodd" clip-rule="evenodd" d="M102.769 153.973C103.453 164.527 104.453 175.194 105.769 185.973C104.888 184.169 103.555 182.669 101.769 181.473C102.436 180.806 103.102 180.14 103.769 179.473C102.786 171.058 102.452 162.558 102.769 153.973Z" fill="#141D2D"/>
<path fill-rule="evenodd" clip-rule="evenodd" d="M239.769 177.973C238.769 178.64 237.769 179.306 236.769 179.973C233.436 179.973 230.102 179.973 226.769 179.973C221.102 178.64 215.436 178.64 209.769 179.973C204.436 179.973 199.102 179.973 193.769 179.973C192.436 179.973 191.102 179.973 189.769 179.973C206.194 176.97 222.861 176.303 239.769 177.973Z" fill="#141D2D"/>
<path fill-rule="evenodd" clip-rule="evenodd" d="M209.769 179.973C215.436 178.64 221.102 178.64 226.769 179.973C226.331 179.908 225.997 180.074 225.769 180.473C227.006 180.705 228.006 181.205 228.769 181.973C222.465 181.06 216.132 180.393 209.769 179.973Z" fill="#BBD082"/>
<path fill-rule="evenodd" clip-rule="evenodd" d="M435.769 256.973C436.558 257.256 437.225 257.756 437.769 258.473C436.52 259.213 435.52 259.046 434.769 257.973C435.436 257.973 435.769 257.64 435.769 256.973Z" fill="#8A9B8D"/>
<path fill-rule="evenodd" clip-rule="evenodd" d="M349.769 254.973C351.215 253.86 352.882 253.693 354.769 254.473C364.633 258.483 374.633 261.983 384.769 264.973C386.769 265.64 388.769 266.306 390.769 266.973C386.354 267.168 382.02 266.668 377.769 265.473C368.738 261.075 359.405 257.575 349.769 254.973Z" fill="#92C16F"/>
<path fill-rule="evenodd" clip-rule="evenodd" d="M349.769 254.973C359.405 257.575 368.738 261.075 377.769 265.473C382.02 266.668 386.354 267.168 390.769 266.973C393.396 266.381 396.063 266.048 398.769 265.973C401.075 265.48 403.408 265.147 405.769 264.973C397.945 268.743 389.612 269.91 380.769 268.473C372.769 265.14 364.769 261.806 356.769 258.473C350.846 257.169 344.846 256.669 338.769 256.973C341.953 255.059 345.62 254.393 349.769 254.973Z" fill="#2B582C"/>
<path fill-rule="evenodd" clip-rule="evenodd" d="M398.769 265.973C396.063 266.048 393.396 266.381 390.769 266.973C388.769 266.306 386.769 265.64 384.769 264.973C389.829 264.965 394.829 264.799 399.769 264.473C399.213 264.856 398.88 265.356 398.769 265.973Z" fill="#559158"/>
<path fill-rule="evenodd" clip-rule="evenodd" d="M435.769 256.973C435.769 257.64 435.436 257.973 434.769 257.973C430.09 257.807 425.424 257.974 420.769 258.473C415.981 261.202 410.981 263.369 405.769 264.973C403.408 265.147 401.075 265.48 398.769 265.973C398.88 265.356 399.213 264.856 399.769 264.473C394.829 264.799 389.829 264.965 384.769 264.973C374.633 261.983 364.633 258.483 354.769 254.473C352.882 253.693 351.215 253.86 349.769 254.973C345.62 254.393 341.953 255.059 338.769 256.973C315.744 280.316 287.744 293.816 254.769 297.473C198.366 300.521 154.533 278.688 123.269 231.973C120.384 227.604 118.218 222.937 116.769 217.973C116.985 214.414 116.651 210.914 115.769 207.473C116.291 206.523 116.958 205.689 117.769 204.973C116.769 204.14 115.769 203.306 114.769 202.473C115.941 202.054 116.941 201.388 117.769 200.473C116.9 199.008 117.4 197.842 119.269 196.973C121.035 197.706 122.868 198.04 124.769 197.973C124.554 199.652 125.221 200.652 126.769 200.973C128.503 204.773 130.503 208.439 132.769 211.973C138.833 198.761 148.833 189.928 162.769 185.473C171.53 182.421 180.53 180.588 189.769 179.973C191.102 179.973 192.436 179.973 193.769 179.973C200.425 180.511 207.091 181.344 213.769 182.473C205.436 182.806 197.102 183.14 188.769 183.473C190.598 183.746 192.098 184.58 193.269 185.973C201.377 184.658 209.544 184.658 217.769 185.973C204.708 186.537 191.708 187.537 178.769 188.973C178.852 186.083 177.352 185.416 174.269 186.973C172.456 186.646 170.789 185.98 169.269 184.973C167.013 186.558 164.513 187.225 161.769 186.973C162.456 192.406 161.29 193.072 158.269 188.973C157.774 190.946 157.607 192.946 157.769 194.973C159.752 194.63 161.086 195.297 161.769 196.973C155.089 200.91 149.256 205.91 144.269 211.973C140.373 217.448 139.873 223.115 142.769 228.973C142.769 230.64 142.769 232.306 142.769 233.973C145.384 235.116 148.051 235.949 150.769 236.473C150.356 233.305 150.856 230.139 152.269 226.973C152.215 229.664 153.382 231.497 155.769 232.473C155.347 236.797 154.347 240.964 152.769 244.973C154.785 244.846 156.785 245.512 158.769 246.973C161.004 247.701 162.837 249.034 164.269 250.973C164.835 248.75 165.669 246.75 166.769 244.973C167.981 244.243 168.981 243.243 169.769 241.973C171.59 243.201 172.59 244.867 172.769 246.973C171.28 250.716 171.447 254.383 173.269 257.973C177.412 261.292 181.912 263.959 186.769 265.973C186.829 266.516 187.162 266.849 187.769 266.973C188.743 264.73 189.077 262.397 188.769 259.973C188.671 257.92 189.338 256.253 190.769 254.973C192.14 253.303 193.64 252.637 195.269 252.973C195.752 253.921 195.918 254.921 195.769 255.973C192.537 261.734 193.204 266.901 197.769 271.473C207.137 275.43 216.804 278.264 226.769 279.973C233.868 281.517 241.201 282.183 248.769 281.973C258.4 282.391 267.733 281.391 276.769 278.973C288.495 277.266 299.495 273.6 309.769 267.973C326.909 261.335 339.409 249.668 347.269 232.973C356.67 212.815 359.503 191.815 355.769 169.973C355.56 168.551 355.06 167.218 354.269 165.973C353.771 169.29 353.604 172.623 353.769 175.973C353.377 201.318 345.544 223.984 330.269 243.973C326.195 248.552 321.695 252.552 316.769 255.973C316.797 253.891 316.13 252.057 314.769 250.473C315.46 249.406 315.96 248.239 316.269 246.973C316.769 229.976 316.936 212.976 316.769 195.973C318.047 189.08 320.714 182.746 324.769 176.973C324.602 176.64 324.436 176.306 324.269 175.973C320.035 180.018 316.868 184.685 314.769 189.973C314.9 189.234 314.733 188.567 314.269 187.973C313.991 188.889 313.491 189.555 312.769 189.973C313.142 186.899 313.808 183.899 314.769 180.973C290.857 174.059 267.023 174.392 243.269 181.973C241.115 181.199 238.948 180.532 236.769 179.973C237.769 179.306 238.769 178.64 239.769 177.973C262.152 169.18 285.152 167.013 308.769 171.473C312.269 172.64 315.769 173.806 319.269 174.973C328.58 164.994 337.913 154.994 347.269 144.973C351.289 138.925 353.623 132.258 354.269 124.973C364.286 145.522 370.119 167.188 371.769 189.973C372.643 205.446 368.643 219.446 359.769 231.973C360.102 232.306 360.436 232.64 360.769 232.973C372.377 227.28 384.377 226.446 396.769 230.473C411.88 236.35 424.88 245.183 435.769 256.973Z" fill="#10562D"/>
<path fill-rule="evenodd" clip-rule="evenodd" d="M188.769 259.973C189.077 262.397 188.743 264.73 187.769 266.973C187.162 266.849 186.829 266.516 186.769 265.973C187.436 263.973 188.102 261.973 188.769 259.973Z" fill="#63914A"/>
<path fill-rule="evenodd" clip-rule="evenodd" d="M419.769 254.973C421.468 254.813 423.135 254.979 424.769 255.473C420.438 257.157 416.105 258.49 411.769 259.473C414.46 257.868 417.127 256.368 419.769 254.973Z" fill="#6AA65D"/>
<path fill-rule="evenodd" clip-rule="evenodd" d="M394.769 239.973C398.862 241.518 402.862 243.352 406.769 245.473C407.965 246.127 407.965 246.627 406.769 246.973C401.323 245.266 395.99 243.6 390.769 241.973C392.752 242.316 394.086 241.649 394.769 239.973Z" fill="#141D2D"/>
<path fill-rule="evenodd" clip-rule="evenodd" d="M394.769 239.973C394.086 241.649 392.752 242.316 390.769 241.973C375.516 239.041 361.183 241.374 347.769 248.973C346.748 248.471 346.581 247.805 347.269 246.973C351.719 240.498 357.886 237.331 365.769 237.473C375.639 236.333 385.305 237.167 394.769 239.973Z" fill="#141D2D"/>
<path fill-rule="evenodd" clip-rule="evenodd" d="M365.769 233.973C372.111 233.807 378.444 233.973 384.769 234.473C386.984 234.643 388.984 235.31 390.769 236.473C381.821 236.225 372.821 235.892 363.769 235.473C364.685 235.195 365.351 234.695 365.769 233.973Z" fill="#5B914B"/>
<path fill-rule="evenodd" clip-rule="evenodd" d="M313.769 258.973C312.716 262.08 311.383 265.08 309.769 267.973C299.495 273.6 288.495 277.266 276.769 278.973C260.153 281.189 243.487 281.523 226.769 279.973C216.804 278.264 207.137 275.43 197.769 271.473C193.204 266.901 192.537 261.734 195.769 255.973C203.22 248.414 212.22 243.747 222.769 241.973C234.084 241.179 245.417 240.846 256.769 240.973C271.037 242.676 284.37 246.843 296.769 253.473C285.269 244.692 272.269 239.525 257.769 237.973C254.982 236.996 251.982 236.663 248.769 236.973C232.078 234.142 216.078 236.642 200.769 244.473C196.535 247.205 193.202 250.705 190.769 254.973C189.338 256.253 188.671 257.92 188.769 259.973C188.102 261.973 187.436 263.973 186.769 265.973C181.912 263.959 177.412 261.292 173.269 257.973C171.447 254.383 171.28 250.716 172.769 246.973C178.797 238.468 186.797 232.301 196.769 228.473C203.18 226.458 209.513 224.625 215.769 222.973C216.102 222.973 216.436 222.973 216.769 222.973C228.427 221.766 240.094 221.766 251.769 222.973C252.102 222.973 252.436 222.973 252.769 222.973C268.023 225.11 282.69 229.61 296.769 236.473C300.884 238.921 304.717 241.754 308.269 244.973C308.936 244.306 308.936 243.64 308.269 242.973C294.751 230.74 278.917 223.407 260.769 220.973C257.033 219.484 253.033 218.817 248.769 218.973C247.317 218.171 245.651 217.671 243.769 217.473C228.327 216.084 213.327 217.584 198.769 221.973C188.169 223.856 179.003 228.523 171.269 235.973C169.231 238.716 167.731 241.716 166.769 244.973C165.669 246.75 164.835 248.75 164.269 250.973C162.837 249.034 161.004 247.701 158.769 246.973C155.945 243.113 155.111 238.78 156.269 233.973C159.322 226.255 164.488 220.421 171.769 216.473C190.363 207.101 210.03 203.768 230.769 206.473C260.392 208.232 286.892 218.065 310.269 235.973C311.144 248.728 306.644 259.228 296.769 267.473C302.595 265.227 308.262 262.393 313.769 258.973Z" fill="#C7DE64"/>
<path fill-rule="evenodd" clip-rule="evenodd" d="M248.769 236.973C241.261 236.511 233.927 237.011 226.769 238.473C235.279 238.644 243.612 239.144 251.769 239.973C243.762 239.807 235.762 239.973 227.769 240.473C225.887 240.671 224.221 241.171 222.769 241.973C212.22 243.747 203.22 248.414 195.769 255.973C195.918 254.921 195.752 253.921 195.269 252.973C193.64 252.637 192.14 253.303 190.769 254.973C193.202 250.705 196.535 247.205 200.769 244.473C216.078 236.642 232.078 234.142 248.769 236.973Z" fill="#1B5523"/>
<path fill-rule="evenodd" clip-rule="evenodd" d="M257.769 237.973C272.269 239.525 285.269 244.692 296.769 253.473C284.37 246.843 271.037 242.676 256.769 240.973C256.769 240.64 256.769 240.306 256.769 239.973C258.796 240.135 260.796 239.968 262.769 239.473C260.887 239.275 259.221 238.775 257.769 237.973Z" fill="#295D23"/>
<path fill-rule="evenodd" clip-rule="evenodd" d="M356.769 212.973C357.102 212.973 357.436 212.973 357.769 212.973C356.403 223.366 352.569 232.699 346.269 240.973C351.011 232.266 354.511 222.933 356.769 212.973Z" fill="#76AF5F"/>
<path fill-rule="evenodd" clip-rule="evenodd" d="M316.769 195.973C315.773 210.463 315.44 225.13 315.769 239.973C315.102 234.64 314.436 229.306 313.769 223.973C313.526 212.609 313.859 201.275 314.769 189.973C316.868 184.685 320.035 180.018 324.269 175.973C324.436 176.306 324.602 176.64 324.769 176.973C320.714 182.746 318.047 189.08 316.769 195.973Z" fill="#B2D76E"/>
<path fill-rule="evenodd" clip-rule="evenodd" d="M185.769 189.973C188.436 189.973 191.102 189.973 193.769 189.973C200.099 190.515 206.433 191.182 212.769 191.973C209.228 192.673 205.728 193.34 202.269 193.973C201.086 192.742 199.92 192.742 198.769 193.973C201.035 194.787 203.369 195.287 205.769 195.473C204.769 195.806 203.769 196.14 202.769 196.473C219.203 197.301 235.536 198.634 251.769 200.473C251.436 200.14 251.102 199.806 250.769 199.473C248.369 199.287 246.035 198.787 243.769 197.973C246.235 197.35 248.568 196.516 250.769 195.473C245.132 196.065 239.465 196.398 233.769 196.473C237.146 196.021 240.48 195.355 243.769 194.473C241.225 193.381 238.558 192.714 235.769 192.473C235.213 192.09 234.88 191.59 234.769 190.973C262.996 195.673 288.163 207.006 310.269 224.973C310.936 227.64 310.936 230.306 310.269 232.973C282.407 210.491 250.407 199.158 214.269 198.973C194.415 197.81 176.248 202.643 159.769 213.473C152.916 219.013 149.082 226.179 148.269 234.973C146.652 232.71 144.819 230.71 142.769 228.973C139.873 223.115 140.373 217.448 144.269 211.973C149.256 205.91 155.089 200.91 161.769 196.973C169.331 193.128 177.331 190.794 185.769 189.973Z" fill="#C4DB67"/>
<path fill-rule="evenodd" clip-rule="evenodd" d="M357.769 212.973C357.436 212.973 357.102 212.973 356.769 212.973C357.19 209.273 357.857 205.606 358.769 201.973C359.842 205.841 359.508 209.508 357.769 212.973Z" fill="#3E8041"/>
<path fill-rule="evenodd" clip-rule="evenodd" d="M193.769 179.973C199.102 179.973 204.436 179.973 209.769 179.973C216.132 180.393 222.465 181.06 228.769 181.973C258.837 187.346 285.504 199.679 308.769 218.973C309.052 219.762 309.552 220.429 310.269 220.973C311.092 212.796 310.925 204.796 309.769 196.973C298.054 193.37 286.054 191.203 273.769 190.473C270.388 189.134 267.055 187.801 263.769 186.473C280.409 183.68 296.742 184.846 312.769 189.973C313.491 189.555 313.991 188.889 314.269 187.973C314.733 188.567 314.9 189.234 314.769 189.973C313.859 201.275 313.526 212.609 313.769 223.973C313.603 231.647 313.769 239.314 314.269 246.973C314.709 244.607 315.209 242.274 315.769 239.973C315.44 225.13 315.773 210.463 316.769 195.973C316.936 212.976 316.769 229.976 316.269 246.973C315.96 248.239 315.46 249.406 314.769 250.473C316.13 252.057 316.797 253.891 316.769 255.973C316.102 257.306 315.102 258.306 313.769 258.973C308.262 262.393 302.595 265.227 296.769 267.473C306.644 259.228 311.144 248.728 310.269 235.973C286.892 218.065 260.392 208.232 230.769 206.473C210.03 203.768 190.363 207.101 171.769 216.473C164.488 220.421 159.322 226.255 156.269 233.973C155.111 238.78 155.945 243.113 158.769 246.973C156.785 245.512 154.785 244.846 152.769 244.973C154.347 240.964 155.347 236.797 155.769 232.473C153.382 231.497 152.215 229.664 152.269 226.973C150.856 230.139 150.356 233.305 150.769 236.473C148.051 235.949 145.384 235.116 142.769 233.973C142.769 232.306 142.769 230.64 142.769 228.973C144.819 230.71 146.652 232.71 148.269 234.973C149.082 226.179 152.916 219.013 159.769 213.473C176.248 202.643 194.415 197.81 214.269 198.973C250.407 199.158 282.407 210.491 310.269 232.973C310.936 230.306 310.936 227.64 310.269 224.973C288.163 207.006 262.996 195.673 234.769 190.973C228.828 189.839 222.828 189.172 216.769 188.973C212.616 188.307 208.282 187.974 203.769 187.973C197.52 187.767 191.52 188.433 185.769 189.973C177.331 190.794 169.331 193.128 161.769 196.973C161.086 195.297 159.752 194.63 157.769 194.973C157.607 192.946 157.774 190.946 158.269 188.973C161.29 193.072 162.456 192.406 161.769 186.973C164.513 187.225 167.013 186.558 169.269 184.973C170.789 185.98 172.456 186.646 174.269 186.973C177.352 185.416 178.852 186.083 178.769 188.973C191.708 187.537 204.708 186.537 217.769 185.973C209.544 184.658 201.377 184.658 193.269 185.973C192.098 184.58 190.598 183.746 188.769 183.473C197.102 183.14 205.436 182.806 213.769 182.473C207.091 181.344 200.425 180.511 193.769 179.973Z" fill="#165527"/>
<path fill-rule="evenodd" clip-rule="evenodd" d="M251.769 239.973C253.436 239.973 255.102 239.973 256.769 239.973C256.769 240.306 256.769 240.64 256.769 240.973C245.417 240.846 234.084 241.179 222.769 241.973C224.221 241.171 225.887 240.671 227.769 240.473C235.762 239.973 243.762 239.807 251.769 239.973Z" fill="#B0D26F"/>
<path fill-rule="evenodd" clip-rule="evenodd" d="M248.769 236.973C251.982 236.663 254.982 236.996 257.769 237.973C259.221 238.775 260.887 239.275 262.769 239.473C260.796 239.968 258.796 240.135 256.769 239.973C255.102 239.973 253.436 239.973 251.769 239.973C243.612 239.144 235.279 238.644 226.769 238.473C233.927 237.011 241.261 236.511 248.769 236.973Z" fill="#0D502C"/>
<path fill-rule="evenodd" clip-rule="evenodd" d="M313.769 223.973C314.436 229.306 315.102 234.64 315.769 239.973C315.209 242.274 314.709 244.607 314.269 246.973C313.769 239.314 313.603 231.647 313.769 223.973Z" fill="#6F9E45"/>
<path fill-rule="evenodd" clip-rule="evenodd" d="M260.769 220.973C278.917 223.407 294.751 230.74 308.269 242.973C308.936 243.64 308.936 244.306 308.269 244.973C304.717 241.754 300.884 238.921 296.769 236.473C282.69 229.61 268.023 225.11 252.769 222.973C256.451 223.138 260.117 222.972 263.769 222.473C262.532 222.241 261.532 221.741 260.769 220.973Z" fill="#225824"/>
<path fill-rule="evenodd" clip-rule="evenodd" d="M198.769 221.973C197.871 222.631 196.871 223.297 195.769 223.973C197.436 224.306 199.102 224.64 200.769 224.973C205.71 223.882 210.71 223.215 215.769 222.973C209.513 224.625 203.18 226.458 196.769 228.473C186.797 232.301 178.797 238.468 172.769 246.973C172.59 244.867 171.59 243.201 169.769 241.973C168.981 243.243 167.981 244.243 166.769 244.973C167.731 241.716 169.231 238.716 171.269 235.973C179.003 228.523 188.169 223.856 198.769 221.973Z" fill="#165423"/>
<path fill-rule="evenodd" clip-rule="evenodd" d="M248.769 218.973C253.033 218.817 257.033 219.484 260.769 220.973C261.532 221.741 262.532 222.241 263.769 222.473C260.117 222.972 256.451 223.138 252.769 222.973C252.436 222.973 252.102 222.973 251.769 222.973C251.658 222.356 251.325 221.856 250.769 221.473C239.769 220.806 228.769 220.806 217.769 221.473C217.213 221.856 216.88 222.356 216.769 222.973C216.436 222.973 216.102 222.973 215.769 222.973C210.71 223.215 205.71 223.882 200.769 224.973C199.102 224.64 197.436 224.306 195.769 223.973C196.871 223.297 197.871 222.631 198.769 221.973C215.274 219.351 231.941 218.351 248.769 218.973Z" fill="#0E5531"/>
<path fill-rule="evenodd" clip-rule="evenodd" d="M251.769 222.973C240.094 221.766 228.427 221.766 216.769 222.973C216.88 222.356 217.213 221.856 217.769 221.473C228.769 220.806 239.769 220.806 250.769 221.473C251.325 221.856 251.658 222.356 251.769 222.973Z" fill="#185016"/>
<path fill-rule="evenodd" clip-rule="evenodd" d="M248.769 218.973C231.941 218.351 215.274 219.351 198.769 221.973C213.327 217.584 228.327 216.084 243.769 217.473C245.651 217.671 247.317 218.171 248.769 218.973Z" fill="#22591E"/>
<path fill-rule="evenodd" clip-rule="evenodd" d="M309.769 196.973C310.925 204.796 311.092 212.796 310.269 220.973C309.552 220.429 309.052 219.762 308.769 218.973C309.761 211.825 310.094 204.492 309.769 196.973Z" fill="#85B15D"/>
<path fill-rule="evenodd" clip-rule="evenodd" d="M355.769 169.973C359.503 191.815 356.67 212.815 347.269 232.973C339.409 249.668 326.909 261.335 309.769 267.973C311.383 265.08 312.716 262.08 313.769 258.973C315.102 258.306 316.102 257.306 316.769 255.973C321.695 252.552 326.195 248.552 330.269 243.973C345.544 223.984 353.377 201.318 353.769 175.973C354.436 173.973 355.102 171.973 355.769 169.973Z" fill="#141D2D"/>
<path fill-rule="evenodd" clip-rule="evenodd" d="M312.769 189.973C296.742 184.846 280.409 183.68 263.769 186.473C267.055 187.801 270.388 189.134 273.769 190.473C286.054 191.203 298.054 193.37 309.769 196.973C310.094 204.492 309.761 211.825 308.769 218.973C285.504 199.679 258.837 187.346 228.769 181.973C228.006 181.205 227.006 180.705 225.769 180.473C225.997 180.074 226.331 179.908 226.769 179.973C230.102 179.973 233.436 179.973 236.769 179.973C238.948 180.532 241.115 181.199 243.269 181.973C267.023 174.392 290.857 174.059 314.769 180.973C313.808 183.899 313.142 186.899 312.769 189.973Z" fill="#C6DC65"/>
<path fill-rule="evenodd" clip-rule="evenodd" d="M193.769 189.973C201.251 188.981 208.917 188.648 216.769 188.973C222.828 189.172 228.828 189.839 234.769 190.973C234.88 191.59 235.213 192.09 235.769 192.473C238.558 192.714 241.225 193.381 243.769 194.473C240.48 195.355 237.146 196.021 233.769 196.473C239.465 196.398 245.132 196.065 250.769 195.473C248.568 196.516 246.235 197.35 243.769 197.973C246.035 198.787 248.369 199.287 250.769 199.473C251.102 199.806 251.436 200.14 251.769 200.473C235.536 198.634 219.203 197.301 202.769 196.473C203.769 196.14 204.769 195.806 205.769 195.473C203.369 195.287 201.035 194.787 198.769 193.973C199.92 192.742 201.086 192.742 202.269 193.973C205.728 193.34 209.228 192.673 212.769 191.973C206.433 191.182 200.099 190.515 193.769 189.973Z" fill="#CCDF63"/>
<path fill-rule="evenodd" clip-rule="evenodd" d="M216.769 188.973C208.917 188.648 201.251 188.981 193.769 189.973C191.102 189.973 188.436 189.973 185.769 189.973C191.52 188.433 197.52 187.767 203.769 187.973C208.282 187.974 212.616 188.307 216.769 188.973Z" fill="#9CBD62"/>
<path fill-rule="evenodd" clip-rule="evenodd" d="M355.769 169.973C355.102 171.973 354.436 173.973 353.769 175.973C353.604 172.623 353.771 169.29 354.269 165.973C355.06 167.218 355.56 168.551 355.769 169.973Z" fill="#8EA293"/>
<path fill-rule="evenodd" clip-rule="evenodd" d="M350.769 144.973C351.312 145.033 351.645 145.366 351.769 145.973C348.863 151.548 344.863 156.215 339.769 159.973C339.436 159.64 339.102 159.306 338.769 158.973C343.137 154.606 347.137 149.94 350.769 144.973Z" fill="#8EBD65"/>
<path fill-rule="evenodd" clip-rule="evenodd" d="M276.769 278.973C267.733 281.391 258.4 282.391 248.769 281.973C241.201 282.183 233.868 281.517 226.769 279.973C243.487 281.523 260.153 281.189 276.769 278.973Z" fill="#B2D370"/>
<path fill-rule="evenodd" clip-rule="evenodd" d="M69.7691 345.973C73.7851 345.373 77.2851 346.373 80.2691 348.973C80.6021 360.64 80.9361 372.306 81.2691 383.973C82.3371 388.549 85.1711 390.549 89.7691 389.973C93.9571 390.619 96.7911 388.953 98.2691 384.973C98.6021 372.973 98.9361 360.973 99.2691 348.973C100.102 348.14 100.936 347.306 101.769 346.473C104.751 345.975 107.751 345.808 110.769 345.973C110.936 358.311 110.769 370.644 110.269 382.973C108.39 394.767 101.39 400.434 89.2691 399.973C81.3491 400.015 75.3491 396.681 71.2691 389.973C69.8191 375.378 69.3191 360.712 69.7691 345.973Z" fill="#15552D"/>
<path fill-rule="evenodd" clip-rule="evenodd" d="M12.7692 344.973C20.8822 344.587 28.8822 345.254 36.7692 346.973C36.8542 350.22 35.8542 353.054 33.7692 355.473C28.2132 354.415 22.5472 354.081 16.7692 354.473C12.2752 356.94 11.6092 360.273 14.7692 364.473C20.5502 366.53 26.2162 368.863 31.7692 371.473C38.3672 377.647 39.5332 384.814 35.2692 392.973C33.3312 395.579 30.8312 397.412 27.7692 398.473C18.3772 400.846 9.2102 400.346 0.269205 396.973C-0.485795 393.976 0.347205 391.476 2.7692 389.473C9.4062 389.914 16.0732 389.914 22.7692 389.473C26.2792 386.425 26.6122 383.092 23.7692 379.473C17.6022 377.195 11.6022 374.528 5.76921 371.473C2.04221 366.23 0.876205 360.397 2.2692 353.973C4.7582 349.641 8.2582 346.641 12.7692 344.973Z" fill="#16562E"/>
<path fill-rule="evenodd" clip-rule="evenodd" d="M452.769 344.973C462.502 343.452 471.335 345.452 479.269 350.973C481.13 353.361 482.463 356.027 483.269 358.973C483.936 367.306 483.936 375.64 483.269 383.973C481.354 392.887 475.854 398.053 466.769 399.473C446.414 401.454 436.748 392.121 437.769 371.473C436.997 359.167 441.997 350.334 452.769 344.973Z" fill="#13552D"/>
<path fill-rule="evenodd" clip-rule="evenodd" d="M456.769 353.973C465.629 352.639 470.796 356.306 472.269 364.973C473.355 372.622 472.355 379.956 469.269 386.973C465.415 391.144 460.915 391.977 455.769 389.473C453.459 387.836 451.959 385.669 451.269 382.973C448.719 374.004 449.385 365.338 453.269 356.973C454.787 356.31 455.954 355.31 456.769 353.973Z" fill="#141D2D"/>
<path fill-rule="evenodd" clip-rule="evenodd" d="M265.769 395.973C263.281 397.861 260.281 398.528 256.769 397.973C254.074 395.25 252.407 391.916 251.769 387.973C245.797 386.809 239.797 386.643 233.769 387.473C232.528 390.597 231.361 393.764 230.269 396.973C226.63 399.099 222.797 399.432 218.769 397.973C223.701 382.342 228.535 366.675 233.269 350.973C234.217 348.903 235.717 347.403 237.769 346.473C241.769 345.806 245.769 345.806 249.769 346.473C250.269 346.973 250.769 347.473 251.269 347.973C256.402 363.9 261.236 379.9 265.769 395.973Z" fill="#13542B"/>
<path fill-rule="evenodd" clip-rule="evenodd" d="M248.769 376.973C244.769 378.306 240.769 378.306 236.769 376.973C238.366 369.85 240.366 362.85 242.769 355.973C245.545 362.741 247.545 369.741 248.769 376.973Z" fill="#141D2D"/>
<path fill-rule="evenodd" clip-rule="evenodd" d="M187.769 346.973C187.769 364.306 187.769 381.64 187.769 398.973C184.436 398.973 181.102 398.973 177.769 398.973C175.101 397.137 172.935 394.804 171.269 391.973C166.422 382.28 161.589 372.613 156.769 362.973C156.709 362.43 156.376 362.097 155.769 361.973C154.77 372.953 154.437 383.953 154.769 394.973C154.769 396.973 153.769 397.973 151.769 397.973C149.769 397.973 147.769 397.973 145.769 397.973C145.769 381.973 145.769 365.973 145.769 349.973C146.128 348.102 147.128 346.602 148.769 345.473C152.029 344.689 155.196 344.856 158.269 345.973C164.602 357.973 170.936 369.973 177.269 381.973C177.602 370.64 177.936 359.306 178.269 347.973C181.307 345.78 184.473 345.446 187.769 346.973Z" fill="#12562C"/>
<path fill-rule="evenodd" clip-rule="evenodd" d="M236.769 376.973C240.769 378.306 244.769 378.306 248.769 376.973C249.312 377.033 249.645 377.366 249.769 377.973C245.102 379.306 240.436 379.306 235.769 377.973C235.893 377.366 236.226 377.033 236.769 376.973Z" fill="#689378"/>
<path fill-rule="evenodd" clip-rule="evenodd" d="M145.769 349.973C145.769 365.973 145.769 381.973 145.769 397.973C147.769 397.973 149.769 397.973 151.769 397.973C149.662 398.941 147.328 399.275 144.769 398.973C144.439 382.464 144.773 366.131 145.769 349.973Z" fill="#527160"/>
<path fill-rule="evenodd" clip-rule="evenodd" d="M156.769 362.973C156.102 373.64 155.436 384.306 154.769 394.973C154.437 383.953 154.77 372.953 155.769 361.973C156.376 362.097 156.709 362.43 156.769 362.973Z" fill="#49785C"/>
<path fill-rule="evenodd" clip-rule="evenodd" d="M385.769 379.973C383.662 379.005 381.328 378.671 378.769 378.973C378.769 384.306 378.769 389.64 378.769 394.973C378.695 396.884 377.695 398.051 375.769 398.473C373.459 398.97 371.126 399.136 368.769 398.973C368.602 382.636 368.769 366.303 369.269 349.973C370.483 348.424 371.983 347.258 373.769 346.473C380.436 345.806 387.102 345.806 393.769 346.473C399.909 347.118 404.076 350.285 406.269 355.973C408.413 365.392 405.58 372.725 397.769 377.973C401.769 384.64 405.769 391.306 409.769 397.973C405.686 399.33 401.686 399.164 397.769 397.473C393.129 392.008 389.129 386.174 385.769 379.973Z" fill="#16572E"/>
<path fill-rule="evenodd" clip-rule="evenodd" d="M379.769 354.973C383.451 354.808 387.117 354.974 390.769 355.473C394.128 356.608 395.461 358.941 394.769 362.473C395.188 365.454 394.188 367.787 391.769 369.473C387.906 370.827 383.906 371.327 379.769 370.973C379.769 365.64 379.769 360.306 379.769 354.973Z" fill="#141D2D"/>
<path fill-rule="evenodd" clip-rule="evenodd" d="M187.769 346.973C188.766 364.465 189.099 382.132 188.769 399.973C184.898 400.288 181.231 399.955 177.769 398.973C181.102 398.973 184.436 398.973 187.769 398.973C187.769 381.64 187.769 364.306 187.769 346.973Z" fill="#88A593"/>
<path fill-rule="evenodd" clip-rule="evenodd" d="M385.769 379.973C383.769 379.973 381.769 379.973 379.769 379.973C380.09 385.168 379.756 390.168 378.769 394.973C378.769 389.64 378.769 384.306 378.769 378.973C381.328 378.671 383.662 379.005 385.769 379.973Z" fill="#6C957C"/>
<path fill-rule="evenodd" clip-rule="evenodd" d="M309.769 344.973C317.925 344.488 325.925 345.155 333.769 346.973C333.646 349.847 332.646 352.347 330.769 354.473C325.098 354.546 319.431 354.546 313.769 354.473C308.933 356.292 306.1 359.792 305.269 364.973C304.281 372.141 304.947 379.141 307.269 385.973C308.436 387.14 309.602 388.306 310.769 389.473C315.424 389.972 320.09 390.139 324.769 389.973C324.769 385.973 324.769 381.973 324.769 377.973C318.102 378.64 315.102 375.64 315.769 368.973C321.113 368.807 326.446 368.974 331.769 369.473C332.685 369.847 333.519 370.347 334.269 370.973C334.936 378.973 334.936 386.973 334.269 394.973C333.436 395.806 332.602 396.64 331.769 397.473C300.152 404.523 287.652 392.023 294.269 359.973C296.812 352.142 301.979 347.142 309.769 344.973Z" fill="#14552D"/>
</svg>
