<svg width="64" height="64" viewBox="0 0 64 64" fill="none" xmlns="http://www.w3.org/2000/svg">
  <!-- Left leaves -->
  <path d="M10 32 Q8 24 12 18 Q14 16 18 18" stroke="#1a5d1a" stroke-width="2" fill="#4ade80" stroke-linecap="round" stroke-linejoin="round"/>
  <path d="M12 18 Q10 12 15 9 Q17 8 20 11" stroke="#1a5d1a" stroke-width="2" fill="#4ade80" stroke-linecap="round" stroke-linejoin="round"/>
  <path d="M18 18 Q21 14 24 16" stroke="#1a5d1a" stroke-width="1.8" fill="#4ade80" stroke-linecap="round" stroke-linejoin="round"/>
  
  <!-- Right leaves -->
  <path d="M44 34 Q50 26 54 24 Q56 23 60 26" stroke="#1a5d1a" stroke-width="2" fill="#4ade80" stroke-linecap="round" stroke-linejoin="round"/>
  <path d="M48 36 Q52 30 56 29 Q58 28 62 31" stroke="#1a5d1a" stroke-width="1.8" fill="#4ade80" stroke-linecap="round" stroke-linejoin="round"/>
  
  <!-- Field/Hills -->
  <path d="M16 38 Q26 33 36 36 Q46 38 56 36" stroke="#4ade80" stroke-width="2.5" fill="none" stroke-linecap="round"/>
  <path d="M18 42 Q28 37 38 40 Q48 42 58 40" stroke="#22c55e" stroke-width="2.2" fill="none" stroke-linecap="round"/>
  <path d="M20 46 Q30 41 40 44 Q50 46 60 44" stroke="#16a34a" stroke-width="2" fill="none" stroke-linecap="round"/>
  
  <!-- Sun -->
  <circle cx="34" cy="16" r="8" fill="#f97316" stroke="#ea580c" stroke-width="0.8"/>
  <circle cx="32" cy="14" r="3" fill="#fed7aa" opacity="0.9"/>
</svg>
