<svg width="120" height="100" viewBox="0 0 120 100" fill="none" xmlns="http://www.w3.org/2000/svg">
<path fill-rule="evenodd" clip-rule="evenodd" d="M38.8869 25.7376C36.9836 26.364 35.082 27.072 33.1817 27.8621C31.8767 28.4982 30.6779 29.2898 29.585 30.2366C28.725 33.3102 28.5181 36.3928 28.9648 39.4846C28.9981 40.9275 29.2049 42.3439 29.585 43.7336C34.5778 36.5302 41.4818 32.8228 50.2973 32.6111C42.1895 31.5301 35.2854 33.988 29.585 39.9845C29.4699 39.836 29.4284 39.6693 29.4609 39.4846C31.5642 35.1575 34.7888 31.95 39.135 29.8617C41.2404 28.9879 43.4315 28.5297 45.7083 28.487C51.232 28.8522 56.5651 30.0601 61.7077 32.1112C60.1765 32.2579 58.771 32.7578 57.4908 33.6109C54.9319 36.1723 52.3685 38.755 49.8012 41.3592C48.4508 42.3317 46.9625 42.9566 45.3363 43.2338C44.7104 43.4547 44.0489 43.6632 43.3518 43.8586C40.1272 43.9418 36.9025 44.0253 33.6778 44.1086C32.2237 44.3413 30.9835 44.9661 29.957 45.9831C30.3859 47.4291 30.882 48.8453 31.4454 50.2322C31.0614 50.152 30.8959 49.902 30.9492 49.4824C30.4777 49.4991 30.023 49.4156 29.585 49.2324C29.1214 49.4496 28.9973 49.7411 29.2129 50.1072C29.0075 50.3359 28.7594 50.5024 28.4687 50.6071C28.7168 50.8153 28.9648 51.0238 29.2129 51.232C29.0117 51.411 28.8463 51.6194 28.7168 51.8569C28.9356 52.7169 29.0184 53.5917 28.9648 54.4813C27.6774 51.9641 26.7678 49.2979 26.2363 46.483C25.9098 43.7889 25.6618 41.1227 25.4921 38.4848C24.5552 38.0401 23.563 37.7485 22.5155 37.61C19.2238 37.6675 15.9992 37.2508 12.8415 36.3603C12.0147 35.8604 11.1877 35.3605 10.3609 34.8606C8.43803 32.924 6.70167 30.8412 5.15184 28.612C3.83195 27.3217 2.26079 26.4887 0.43885 26.1125C5.91162 24.0547 11.5342 23.4716 17.3064 24.3629C21.3387 25.4264 24.3568 27.8009 26.3603 31.4863C27.955 24.0177 31.6344 17.8526 37.3986 12.9904C41.7916 9.7351 46.5872 7.19391 51.7856 5.36706C45.7145 5.75273 40.34 7.87726 35.6622 11.7407C31.1135 15.1502 27.6822 19.4825 25.3681 24.7378C26.0971 15.4761 30.438 8.51937 38.3908 3.86739C43.04 1.73036 47.9185 0.480637 53.0259 0.118217C57.6632 -0.0997356 62.2936 -0.0162539 66.9168 0.368162C63.5351 1.69237 61.0131 3.98362 59.3512 7.24165C57.7609 10.5299 56.1072 13.7792 54.3902 16.9895C52.3497 20.1218 49.5797 22.3298 46.0804 23.6131C43.7239 24.5021 41.3263 25.2102 38.8869 25.7376Z" fill="#11562E"/>
<path fill-rule="evenodd" clip-rule="evenodd" d="M59.7233 3.74242C59.9775 3.84164 60.019 4.00811 59.8473 4.24231C58.6735 6.01017 57.5987 7.84302 56.6226 9.7411C57.056 7.45185 58.0896 5.45229 59.7233 3.74242Z" fill="#A2C765"/>
<path fill-rule="evenodd" clip-rule="evenodd" d="M52.0337 16.9895C50.3196 19.1503 48.1698 20.7749 45.5843 21.8634C42.1982 22.9452 38.808 24.0282 35.4142 25.1127C33.6912 25.8141 32.0377 26.6471 30.4531 27.6122C30.1565 27.7757 30.1565 27.9006 30.4531 27.9871C33.971 26.352 37.6092 25.1022 41.3674 24.2379C41.4218 24.5316 41.3391 24.7816 41.1194 24.9878C40.3025 25.1067 39.5584 25.3567 38.8869 25.7376C36.4213 25.7716 34.2302 26.5214 32.3135 27.9871C31.8638 27.7099 31.6572 27.8766 31.6934 28.487C31.3387 28.5067 31.0078 28.4235 30.7012 28.237C30.3316 28.6435 29.9595 29.0599 29.585 29.4868C29.5024 29.4035 29.4195 29.3201 29.3369 29.2368C28.7465 29.8369 28.1264 29.8369 27.4765 29.2368C27.7246 29.0701 27.9726 28.9037 28.2207 28.7369C27.6732 28.0753 27.7146 27.409 28.3447 26.7374C28.726 27.5637 29.2635 27.6887 29.957 27.1123C29.7745 26.6072 29.9811 26.2322 30.5772 25.9875C30.697 25.7506 30.7381 25.5006 30.7012 25.2377C31.5441 25.3272 32.3297 25.1607 33.0577 24.7378C33.5729 24.867 34.069 25.0338 34.546 25.2377C34.6658 25.0008 34.707 24.7508 34.67 24.4879C34.9979 24.4454 35.2874 24.5286 35.5382 24.7378C36.0678 24.2934 36.6879 24.1267 37.3986 24.2379C37.3986 23.9047 37.3986 23.5713 37.3986 23.2381C36.8958 23.2786 36.3997 23.2369 35.9103 23.1132C35.7808 22.973 35.6982 22.8062 35.6622 22.6133C36.0202 21.6043 36.2268 20.563 36.2824 19.489C36.4962 19.8856 36.6616 20.3023 36.7785 20.7387C36.8611 20.6555 36.9439 20.572 37.0265 20.4887C37.0052 19.5505 37.0464 18.6339 37.1505 17.7394C37.4812 17.7394 37.8121 17.7394 38.1428 17.7394C38.1428 17.4894 38.1428 17.2395 38.1428 16.9895C39.0829 17.1125 39.2481 16.9043 38.6389 16.3647C38.976 16.0637 39.224 15.6888 39.383 15.2399C39.6519 15.5311 39.8585 15.8643 40.0031 16.2397C40.0242 14.7083 40.3137 14.625 40.8713 15.9897C41.1568 14.911 41.8181 14.2029 42.8557 13.8652C42.9949 13.4463 43.2429 13.1131 43.5999 12.8654C43.1633 12.6242 43.0805 12.3325 43.3518 11.9906C43.5944 12.1098 43.8011 12.2763 43.972 12.4905C44.3277 12.0816 44.7824 11.8316 45.3363 11.7407C45.6508 11.9726 45.9814 12.0144 46.3285 11.8656C46.7142 11.2495 47.2103 11.1246 47.8168 11.4907C48.0031 11.2718 48.1271 11.0218 48.1889 10.7409C48.5205 11.0571 48.8926 11.182 49.3051 11.1158C49.1756 10.9756 49.093 10.8089 49.057 10.6159C49.3579 10.2085 49.5646 9.75011 49.6772 9.24122C49.9418 9.06851 50.2313 8.94353 50.5454 8.8663C50.3196 8.41515 50.0716 7.957 49.8012 7.4916C50.6044 7.42012 51.39 7.42012 52.1577 7.4916C52.2817 7.61657 52.4057 7.74155 52.5298 7.86652C52.0979 8.27143 51.643 8.64635 51.1655 8.99127C51.0439 9.31445 51.0025 9.64788 51.0415 9.99105C50.3705 9.96106 50.205 10.211 50.5454 10.7409C50.427 10.9853 50.2618 11.1935 50.0492 11.3658C50.3392 11.8674 50.5044 12.4088 50.5454 12.9904C50.2147 12.9904 49.8838 12.9904 49.5531 12.9904C49.7766 13.9254 49.446 14.4253 48.5609 14.4901C48.6483 15.1332 48.5242 15.7163 48.1889 16.2397C48.0948 13.7985 47.888 13.7152 47.5687 15.9897C47.2381 15.9897 46.9072 15.9897 46.5765 15.9897C46.6155 16.3329 46.574 16.6663 46.4525 16.9895C45.8224 16.7288 45.2435 16.5624 44.7161 16.4896C43.8938 17.4519 44.0179 17.6184 45.0882 16.9895C45.7872 17.3102 46.4902 17.3102 47.1967 16.9895C47.7121 17.4714 48.2496 17.8881 48.809 18.2392C48.9744 18.1975 49.1396 18.156 49.3051 18.1143C49.0528 17.8521 49.0114 17.5604 49.1811 17.2395C49.6293 17.5796 49.8773 17.9131 49.9252 18.2392C50.6195 18.055 50.6609 17.8468 50.0492 17.6144C50.499 17.6259 50.9122 17.5844 51.2895 17.4894C51.0593 17.1725 51.0179 16.8393 51.1655 16.4896C51.3416 16.8578 51.6308 17.0245 52.0337 16.9895Z" fill="#0E572D"/>
<path fill-rule="evenodd" clip-rule="evenodd" d="M37.3986 12.9904C37.4177 12.678 37.5832 12.4698 37.8947 12.3655C37.6662 11.9266 37.3768 11.8849 37.0265 12.2406C36.58 12.0356 36.1251 11.8691 35.6622 11.7407C40.34 7.87726 45.7145 5.75273 51.7856 5.36707C46.5872 7.19391 41.7916 9.73511 37.3986 12.9904Z" fill="#F0F6F3"/>
<path fill-rule="evenodd" clip-rule="evenodd" d="M40.1272 7.49159C40.5933 7.46484 40.6759 7.58982 40.3752 7.86651C35.3844 10.1443 31.3744 13.6017 28.3447 18.2392C28.3526 17.7148 28.5181 17.215 28.8408 16.7396C31.7289 12.5582 35.4911 9.47565 40.1272 7.49159Z" fill="#90BB66"/>
<path fill-rule="evenodd" clip-rule="evenodd" d="M69.6454 17.4894C69.1455 17.8454 68.5668 18.0118 67.909 17.9893C68.4088 17.6334 68.9875 17.4669 69.6454 17.4894Z" fill="#EEC074"/>
<path fill-rule="evenodd" clip-rule="evenodd" d="M74.1103 17.4894C74.7694 17.5981 75.3483 17.8481 75.8467 18.2392C75.1407 18.2262 74.5618 17.9763 74.1103 17.4894Z" fill="#F2C577"/>
<path fill-rule="evenodd" clip-rule="evenodd" d="M74.1103 17.4894C74.5618 17.9763 75.1407 18.2262 75.8467 18.2392C77.6805 19.1708 79.0036 20.587 79.8155 22.4883C80.4495 24.3417 80.6976 26.258 80.5597 28.2371C80.2814 29.462 79.8678 30.6283 79.3194 31.7363C78.9625 32.2012 78.5492 32.6178 78.0791 32.986C77.0306 34.2015 75.7078 34.9513 74.1103 35.2355C71.7196 35.4167 69.4043 35.1668 67.1649 34.4857C65.2226 33.2784 63.8169 31.6121 62.948 29.4868C62.2085 27.1775 62.2911 24.928 63.196 22.7383C64.1917 20.5685 65.7629 18.9856 67.909 17.9893C68.5668 18.0118 69.1456 17.8453 69.6454 17.4894C71.1228 17.1785 72.6111 17.1785 74.1103 17.4894Z" fill="#FAA82A"/>
<path fill-rule="evenodd" clip-rule="evenodd" d="M70.1415 19.489C71.4212 19.4095 72.6614 19.5759 73.8623 19.9888C77.5347 21.636 79.147 24.4686 78.6993 28.487C78.572 28.7437 78.448 28.9936 78.3272 29.2368C78.1617 28.237 77.9965 27.2373 77.8311 26.2375C76.4127 21.6887 73.3535 19.8141 68.6532 20.6137C67.8725 20.8339 67.1284 21.1253 66.4207 21.4885C66.4207 21.3218 66.4207 21.1553 66.4207 20.9886C67.5359 20.1338 68.7762 19.6339 70.1415 19.489Z" fill="#FCF2D9"/>
<path fill-rule="evenodd" clip-rule="evenodd" d="M70.1415 19.489C71.0037 19.2033 71.9131 19.1615 72.87 19.364C73.3215 19.414 73.6521 19.6224 73.8622 19.9889C72.6614 19.5759 71.4212 19.4095 70.1415 19.489Z" fill="#F0C16C"/>
<path fill-rule="evenodd" clip-rule="evenodd" d="M66.4207 20.9886C66.4207 21.1553 66.4207 21.3218 66.4207 21.4885C66.0087 22.1679 65.5126 22.5843 64.9324 22.7382C65.2558 21.9967 65.7519 21.4133 66.4207 20.9886Z" fill="#FAD99C"/>
<path fill-rule="evenodd" clip-rule="evenodd" d="M41.3674 24.2379C37.6092 25.1022 33.971 26.352 30.4531 27.9871C30.1565 27.9006 30.1565 27.7757 30.4531 27.6122C32.0377 26.6472 33.6912 25.8141 35.4142 25.1127C38.808 24.0282 42.1982 22.9452 45.5843 21.8635C48.1698 20.7749 50.3196 19.1503 52.0337 16.9895C52.7706 16.1762 53.3908 15.2599 53.8941 14.2401C53.2558 16.8898 51.8087 19.0143 49.5532 20.6137C46.9236 22.1064 44.195 23.3144 41.3674 24.2379Z" fill="#B0CE6D"/>
<path fill-rule="evenodd" clip-rule="evenodd" d="M63.196 22.7382C62.2911 24.928 62.2085 27.1775 62.948 29.4868C62.6855 29.2118 62.4786 28.8784 62.3278 28.487C62.1624 26.9873 62.1624 25.4876 62.3278 23.988C62.5106 23.4641 62.7999 23.0474 63.196 22.7382Z" fill="#FEF6D9"/>
<path fill-rule="evenodd" clip-rule="evenodd" d="M79.8155 22.4883C80.2136 22.9832 80.5031 23.5663 80.6837 24.2379C80.8075 25.5684 80.8489 26.9013 80.8077 28.2371C80.7251 28.2371 80.6422 28.2371 80.5596 28.2371C80.6976 26.258 80.4495 24.3417 79.8155 22.4883Z" fill="#EAAE4F"/>
<path fill-rule="evenodd" clip-rule="evenodd" d="M13.8336 26.9873C12.6274 26.9076 11.4697 26.9908 10.3609 27.2373C10.0203 27.2765 9.68944 27.2348 9.36871 27.1123C9.45131 27.0291 9.53416 26.9456 9.61677 26.8623C11.0676 26.6579 12.4731 26.6994 13.8336 26.9873Z" fill="#87AE98"/>
<path fill-rule="evenodd" clip-rule="evenodd" d="M16.5622 26.9873C16.6657 26.8314 16.8311 26.7481 17.0583 26.7374C18.722 27.143 20.2929 27.7679 21.7713 28.612C20.0801 28.0029 18.3437 27.4612 16.5622 26.9873Z" fill="#68A15C"/>
<path fill-rule="evenodd" clip-rule="evenodd" d="M4.90378 27.7372C5.00225 27.481 5.16746 27.4392 5.39988 27.6122C6.1681 28.2098 6.70538 28.9179 7.01222 29.7367C6.34174 29.0191 5.639 28.3525 4.90378 27.7372Z" fill="#82B76B"/>
<path fill-rule="evenodd" clip-rule="evenodd" d="M77.8311 26.2375C77.9965 27.2373 78.1617 28.237 78.3272 29.2368C78.2357 30.7712 77.5741 31.771 76.3428 32.2362C77.6765 30.4675 78.1726 28.468 77.8311 26.2375Z" fill="#FBE3B3"/>
<path fill-rule="evenodd" clip-rule="evenodd" d="M80.5596 28.237C80.6423 28.237 80.7251 28.237 80.8077 28.237C80.8114 29.8469 80.4393 31.3466 79.6915 32.7361C79.6257 32.3204 79.7498 31.9455 80.0635 31.6113C79.7964 31.4938 79.5483 31.5356 79.3194 31.7363C79.8678 30.6283 80.2813 29.462 80.5596 28.237Z" fill="#FCF1DA"/>
<path fill-rule="evenodd" clip-rule="evenodd" d="M10.3609 27.2373C11.4697 26.9908 12.6274 26.9076 13.8336 26.9873C18.5734 27.5217 22.6663 29.438 26.1122 32.7361C26.1021 33.5619 26.0195 34.3949 25.8642 35.2355C21.7924 30.4968 16.6247 27.8306 10.3609 27.2373Z" fill="#EFF5F0"/>
<path fill-rule="evenodd" clip-rule="evenodd" d="M37.8947 33.2359C39.6509 32.2564 41.5527 31.798 43.5999 31.8612C41.6758 32.2442 39.7742 32.7023 37.8947 33.2359Z" fill="#619B58"/>
<path fill-rule="evenodd" clip-rule="evenodd" d="M37.8947 33.2359C36.2943 34.124 34.7234 34.9988 33.1817 35.8604C34.5376 34.5941 36.1085 33.7193 37.8947 33.2359Z" fill="#78AE65"/>
<path fill-rule="evenodd" clip-rule="evenodd" d="M56.2506 32.986C56.4339 32.9533 56.5993 32.995 56.7467 33.111C55.87 34.078 54.9193 34.9528 53.8941 35.7354C53.7286 35.5687 53.7286 35.4022 53.8941 35.2355C54.6536 34.4277 55.4392 33.6779 56.2506 32.986Z" fill="#8FBD68"/>
<path fill-rule="evenodd" clip-rule="evenodd" d="M78.0791 32.986C77.6418 33.8855 76.9803 34.5936 76.0947 35.1105C76.2602 35.1938 76.4254 35.2772 76.5908 35.3605C76.0731 35.306 75.577 35.3477 75.1025 35.4854C75.3506 35.6522 75.5986 35.8186 75.8467 35.9853C75.6812 36.0686 75.516 36.152 75.3506 36.2353C74.6545 35.8444 73.9104 35.6779 73.1181 35.7354C73.4487 35.5687 73.7796 35.4022 74.1103 35.2355C75.7078 34.9513 77.0306 34.2015 78.0791 32.986Z" fill="#FCF1D8"/>
<path fill-rule="evenodd" clip-rule="evenodd" d="M67.1648 34.4857C69.4043 35.1668 71.7196 35.4167 74.1103 35.2355C73.7796 35.4022 73.4487 35.5687 73.1181 35.7354C71.9575 35.7769 70.8 35.7351 69.6454 35.6104C68.7025 35.4257 67.8758 35.0508 67.1648 34.4857Z" fill="#ECAF50"/>
<path fill-rule="evenodd" clip-rule="evenodd" d="M22.5155 36.9851C20.0684 36.7567 17.5879 36.5067 15.0739 36.2353C12.9881 35.7884 11.2103 34.7886 9.7408 33.2359C9.57535 33.0692 9.57535 32.9028 9.7408 32.736C11.6925 34.6981 14.049 35.8229 16.8103 36.1103C18.9634 36.2328 21.1132 36.3992 23.2596 36.6102C23.7825 36.7002 24.2786 36.8669 24.7479 37.1101C24.01 37.1211 23.2658 37.0793 22.5155 36.9851Z" fill="#88BB6A"/>
<path fill-rule="evenodd" clip-rule="evenodd" d="M15.0739 36.2353C17.5879 36.5067 20.0684 36.7567 22.5155 36.9851C20.1074 37.0461 17.7097 36.9212 15.322 36.6102C15.1841 36.5145 15.1015 36.3895 15.0739 36.2353Z" fill="#265E17"/>
<path fill-rule="evenodd" clip-rule="evenodd" d="M28.9648 39.4846C29.1303 39.4846 29.2955 39.4846 29.4609 39.4846C29.4284 39.6693 29.4699 39.836 29.585 39.9845C35.2854 33.988 42.1895 31.5301 50.2973 32.6111C41.4818 32.8228 34.5778 36.5302 29.585 43.7336C29.2049 42.344 28.9981 40.9275 28.9648 39.4846Z" fill="#F2F7F3"/>
<path fill-rule="evenodd" clip-rule="evenodd" d="M46.5765 42.234C45.915 42.4007 45.2537 42.5672 44.5921 42.7339C44.3272 42.5004 43.9965 42.4169 43.5999 42.4839C46.2761 42.156 48.55 40.9898 50.4213 38.9847C50.2859 39.6328 49.9138 40.1744 49.3051 40.6093C48.4235 41.2075 47.5142 41.7491 46.5765 42.234Z" fill="#8CBB6B"/>
<path fill-rule="evenodd" clip-rule="evenodd" d="M43.5999 42.4839C43.9965 42.4169 44.3272 42.5004 44.5921 42.7339C43.9482 42.9251 43.2866 43.0085 42.6077 42.9838C40.0823 43.0655 37.6018 42.9823 35.1661 42.7339C37.9572 42.4897 40.7686 42.4062 43.5999 42.4839Z" fill="#9EC866"/>
<path fill-rule="evenodd" clip-rule="evenodd" d="M35.1661 42.7339C37.6018 42.9823 40.0823 43.0655 42.6077 42.9838C39.6311 43.1505 36.6544 43.317 33.6778 43.4837C33.4169 43.5209 33.1688 43.4794 32.9337 43.3587C33.6376 43.045 34.3818 42.8366 35.1661 42.7339Z" fill="#70A153"/>
<path fill-rule="evenodd" clip-rule="evenodd" d="M46.5765 42.2339C46.163 42.5671 45.7498 42.9006 45.3363 43.2337C41.4547 43.4544 37.5688 43.5377 33.6778 43.4837C36.6544 43.317 39.6311 43.1505 42.6077 42.9838C43.2866 43.0085 43.9482 42.925 44.5921 42.7338C45.2537 42.5671 45.915 42.4007 46.5765 42.2339Z" fill="#14501A"/>
<path fill-rule="evenodd" clip-rule="evenodd" d="M25.4921 38.4848C25.6618 41.1227 25.9098 43.7889 26.2363 46.483C26.0177 46.0321 25.6871 45.6572 25.244 45.3583C25.4095 45.1916 25.5747 45.0251 25.7402 44.8584C25.4963 42.7551 25.4135 40.6306 25.4921 38.4848Z" fill="#CEE0D6"/>
<path fill-rule="evenodd" clip-rule="evenodd" d="M59.4752 44.4835C59.2272 44.6502 58.9791 44.8167 58.7311 44.9834C57.9043 44.9834 57.0773 44.9834 56.2505 44.9834C54.8448 44.6502 53.4394 44.6502 52.0337 44.9834C50.7108 44.9834 49.3877 44.9834 48.0648 44.9834C47.7342 44.9834 47.4033 44.9834 47.0726 44.9834C51.1469 44.2328 55.2812 44.0661 59.4752 44.4835Z" fill="#E4EBD3"/>
<path fill-rule="evenodd" clip-rule="evenodd" d="M52.0337 44.9834C53.4394 44.6502 54.8448 44.6502 56.2505 44.9834C56.1419 44.9671 56.0591 45.0086 56.0025 45.1083C56.3093 45.1663 56.5574 45.2913 56.7467 45.4833C55.1829 45.2551 53.612 45.0883 52.0337 44.9834Z" fill="#BBD082"/>
<path fill-rule="evenodd" clip-rule="evenodd" d="M108.093 64.2292C108.289 64.2999 108.455 64.4249 108.59 64.6041C108.28 64.789 108.032 64.7473 107.845 64.4791C108.011 64.4791 108.093 64.3959 108.093 64.2292Z" fill="#8A9B8D"/>
<path fill-rule="evenodd" clip-rule="evenodd" d="M86.761 63.7292C87.1196 63.4511 87.5331 63.4093 88.0012 63.6043C90.448 64.6066 92.9285 65.4814 95.4428 66.2287C95.9389 66.3954 96.435 66.5619 96.9311 66.7286C95.8359 66.7773 94.7609 66.6524 93.7064 66.3537C91.4663 65.2544 89.1512 64.3796 86.761 63.7292Z" fill="#92C16F"/>
<path fill-rule="evenodd" clip-rule="evenodd" d="M86.761 63.7292C89.1512 64.3796 91.4663 65.2544 93.7064 66.3536C94.7609 66.6523 95.8359 66.7773 96.9311 66.7286C97.5827 66.5806 98.2443 66.4974 98.9155 66.4786C99.4875 66.3554 100.066 66.2722 100.652 66.2287C98.7111 67.171 96.6441 67.4627 94.4506 67.1035C92.4662 66.2704 90.4817 65.4371 88.4973 64.604C87.0281 64.2781 85.5398 64.1531 84.0324 64.2291C84.8222 63.7507 85.7318 63.5843 86.761 63.7292Z" fill="#2B582C"/>
<path fill-rule="evenodd" clip-rule="evenodd" d="M98.9155 66.4787C98.2443 66.4974 97.5827 66.5806 96.9311 66.7286C96.435 66.5619 95.9389 66.3954 95.4428 66.2287C96.6979 66.2267 97.9382 66.1852 99.1636 66.1037C99.0256 66.1995 98.943 66.3244 98.9155 66.4787Z" fill="#559158"/>
<path fill-rule="evenodd" clip-rule="evenodd" d="M108.093 64.2291C108.093 64.3958 108.011 64.4791 107.845 64.4791C106.685 64.4376 105.527 64.4793 104.373 64.6041C103.185 65.2862 101.945 65.8278 100.652 66.2287C100.066 66.2722 99.4875 66.3554 98.9155 66.4786C98.943 66.3244 99.0256 66.1995 99.1636 66.1037C97.9382 66.1852 96.6979 66.2267 95.4428 66.2287C92.9285 65.4814 90.448 64.6066 88.0012 63.6043C87.5331 63.4093 87.1196 63.4511 86.761 63.7292C85.7318 63.5843 84.8222 63.7507 84.0324 64.2291C78.321 70.0636 71.3755 73.4379 63.196 74.3519C49.2051 75.1137 38.3323 69.6567 30.5772 57.9805C29.8615 56.8885 29.3243 55.722 28.9648 54.4813C29.0184 53.5917 28.9356 52.7169 28.7168 51.8568C28.8463 51.6194 29.0117 51.4109 29.2129 51.232C28.9648 51.0238 28.7168 50.8153 28.4687 50.6071C28.7594 50.5024 29.0075 50.3359 29.2129 50.1072C28.9973 49.7411 29.1214 49.4496 29.585 49.2324C30.023 49.4156 30.4777 49.4991 30.9492 49.4824C30.8959 49.902 31.0614 50.152 31.4454 50.2322C31.8755 51.182 32.3716 52.0983 32.9337 52.9816C34.4379 49.6793 36.9184 47.4716 40.3752 46.3581C42.5484 45.5952 44.7809 45.1371 47.0726 44.9834C47.4033 44.9834 47.7342 44.9834 48.0648 44.9834C49.7159 45.1178 51.3694 45.326 53.0259 45.6082C50.9589 45.6915 48.8916 45.7749 46.8246 45.8582C47.2783 45.9264 47.6503 46.1349 47.9408 46.483C49.952 46.1544 51.9779 46.1544 54.0181 46.483C50.7783 46.624 47.5536 46.8739 44.3441 47.2329C44.3646 46.5105 43.9926 46.3438 43.2278 46.733C42.7781 46.6512 42.3646 46.4848 41.9876 46.2331C41.428 46.6292 40.8078 46.796 40.1272 46.733C40.2976 48.0909 40.0084 48.2574 39.259 47.2329C39.1362 47.726 39.0948 48.2259 39.135 48.7325C39.6269 48.6468 39.9578 48.8135 40.1272 49.2324C38.4702 50.2165 37.0233 51.4662 35.7863 52.9816C34.8199 54.3501 34.6958 55.7665 35.4142 57.2307C35.4142 57.6473 35.4142 58.0637 35.4142 58.4804C36.0628 58.7661 36.7244 58.9743 37.3986 59.1053C37.2962 58.3134 37.4202 57.5221 37.7707 56.7308C37.7573 57.4034 38.0468 57.8615 38.6389 58.1055C38.5342 59.1862 38.2861 60.2278 37.8947 61.2298C38.3948 61.1981 38.8909 61.3645 39.383 61.7297C39.9374 61.9116 40.3921 62.2448 40.7473 62.7295C40.8877 62.1738 41.0946 61.6739 41.3674 61.2298C41.6681 61.0473 41.9161 60.7974 42.1116 60.48C42.5633 60.7869 42.8113 61.2033 42.8557 61.7297C42.4864 62.6652 42.5278 63.5818 42.9798 64.4791C44.0075 65.3086 45.1237 65.9753 46.3285 66.4786C46.3434 66.6144 46.426 66.6976 46.5765 66.7286C46.8181 66.168 46.901 65.5848 46.8246 64.979C46.8003 64.4658 46.9657 64.0492 47.3207 63.7292C47.6608 63.3118 48.0328 63.1454 48.4369 63.2294C48.5567 63.4663 48.5979 63.7162 48.5609 63.9792C47.7592 65.4191 47.9247 66.7106 49.057 67.8533C51.3808 68.8424 53.7787 69.5507 56.2506 69.9779C58.0115 70.3638 59.8304 70.5303 61.7077 70.4778C64.0967 70.5822 66.4118 70.3323 68.6532 69.7279C71.5618 69.3013 74.2904 68.385 76.8389 66.9785C81.0905 65.3194 84.1911 62.4033 86.1408 58.2305C88.4728 53.1921 89.1755 47.9432 88.2493 42.4839C88.1974 42.1285 88.0734 41.7953 87.8772 41.4841C87.7537 42.3132 87.7122 43.1463 87.7532 43.9836C87.6559 50.3184 85.7129 55.9837 81.9239 60.9798C80.9134 62.1243 79.7971 63.1241 78.5752 63.9792C78.5822 63.4588 78.4167 63.0004 78.0791 62.6045C78.2505 62.3378 78.3746 62.0461 78.4512 61.7297C78.5752 57.4814 78.6167 53.2323 78.5752 48.9825C78.8922 47.2596 79.5538 45.6765 80.5597 44.2335C80.5182 44.1503 80.4771 44.0668 80.4356 43.9836C79.3854 44.9946 78.5998 46.1611 78.0791 47.4828C78.1116 47.2981 78.0702 47.1314 77.9551 46.9829C77.8861 47.2119 77.7621 47.3783 77.583 47.4828C77.6756 46.7145 77.8408 45.9646 78.0791 45.2333C72.1477 43.5052 66.2356 43.5884 60.3434 45.4832C59.8091 45.2898 59.2716 45.1231 58.7311 44.9834C58.9791 44.8166 59.2272 44.6502 59.4752 44.4835C65.0274 42.2857 70.7326 41.7441 76.5908 42.8588C77.459 43.1505 78.3272 43.4419 79.1954 43.7336C81.505 41.2394 83.82 38.74 86.1408 36.2353C87.138 34.7236 87.7169 33.0572 87.8772 31.2364C90.3619 36.3725 91.8088 41.7878 92.2181 47.4828C92.4349 51.3502 91.4427 54.8494 89.2415 57.9805C89.3241 58.0637 89.4069 58.1472 89.4895 58.2305C92.3689 56.8075 95.3455 56.5991 98.4194 57.6056C102.168 59.0745 105.392 61.2823 108.093 64.2291Z" fill="#10562D"/>
<path fill-rule="evenodd" clip-rule="evenodd" d="M46.8246 64.979C46.901 65.5849 46.8181 66.168 46.5765 66.7286C46.426 66.6976 46.3434 66.6144 46.3285 66.4787C46.4939 65.9788 46.6591 65.4789 46.8246 64.979Z" fill="#63914A"/>
<path fill-rule="evenodd" clip-rule="evenodd" d="M104.125 63.7293C104.546 63.6893 104.96 63.7308 105.365 63.8542C104.291 64.2751 103.216 64.6083 102.14 64.854C102.808 64.4528 103.469 64.0779 104.125 63.7293Z" fill="#6AA65D"/>
<path fill-rule="evenodd" clip-rule="evenodd" d="M97.9233 59.9801C98.9386 60.3663 99.9308 60.8247 100.9 61.3548C101.197 61.5182 101.197 61.6432 100.9 61.7297C99.549 61.303 98.2262 60.8866 96.9311 60.48C97.423 60.5657 97.7539 60.399 97.9233 59.9801Z" fill="#CDE2D6"/>
<path fill-rule="evenodd" clip-rule="evenodd" d="M97.9233 59.9801C97.7539 60.399 97.423 60.5657 96.9311 60.4799C93.1475 59.7471 89.5922 60.3302 86.2648 62.2296C86.0116 62.1041 85.9702 61.9376 86.1408 61.7297C87.2446 60.1113 88.7744 59.3197 90.7298 59.3552C93.1781 59.0703 95.5757 59.2787 97.9233 59.9801Z" fill="#E9F2EB"/>
<path fill-rule="evenodd" clip-rule="evenodd" d="M90.7298 58.4804C92.3029 58.4389 93.8738 58.4804 95.4428 58.6054C95.9922 58.6479 96.4883 58.8146 96.9311 59.1053C94.7115 59.0433 92.479 58.9601 90.2337 58.8553C90.4609 58.7858 90.6261 58.6609 90.7298 58.4804Z" fill="#5B914B"/>
<path fill-rule="evenodd" clip-rule="evenodd" d="M77.8311 64.729C77.5699 65.5056 77.2392 66.2554 76.8389 66.9785C74.2904 68.385 71.5618 69.3013 68.6532 69.7279C64.5315 70.2818 60.3975 70.3653 56.2506 69.9779C53.7787 69.5507 51.3808 68.8424 49.0571 67.8533C47.9247 66.7106 47.7592 65.4191 48.5609 63.9792C50.4092 62.0898 52.6417 60.9234 55.2584 60.4799C58.0651 60.2815 60.8762 60.1983 63.6921 60.23C67.2313 60.6557 70.5386 61.6972 73.6142 63.3543C70.7616 61.1595 67.5369 59.8681 63.9402 59.4802C63.2489 59.236 62.5047 59.1527 61.7077 59.2302C57.5675 58.5226 53.5986 59.1475 49.8012 61.1048C48.751 61.7877 47.9242 62.6625 47.3207 63.7292C46.9657 64.0492 46.8003 64.4658 46.8246 64.979C46.6591 65.4789 46.4939 65.9787 46.3285 66.4786C45.1237 65.9752 44.0075 65.3086 42.9798 64.4791C42.5278 63.5818 42.4864 62.6652 42.8558 61.7297C44.351 59.6039 46.3354 58.0625 48.809 57.1057C50.3993 56.602 51.9702 56.1439 53.522 55.731C53.6046 55.731 53.6874 55.731 53.77 55.731C56.6618 55.4293 59.5559 55.4293 62.4519 55.731C62.5345 55.731 62.6173 55.731 62.6999 55.731C66.4837 56.2651 70.1219 57.3899 73.6142 59.1052C74.6349 59.7171 75.5857 60.4252 76.4668 61.2298C76.6323 61.0631 76.6323 60.8966 76.4668 60.7299C73.1136 57.6723 69.186 55.8395 64.6843 55.2311C63.7576 54.8589 62.7654 54.6922 61.7077 54.7312C61.3475 54.5308 60.9343 54.4058 60.4674 54.3563C56.637 54.0091 52.9162 54.384 49.3051 55.481C46.6758 55.9517 44.4021 57.1182 42.4837 58.9803C41.9781 59.6659 41.6061 60.4157 41.3674 61.2298C41.0946 61.6739 40.8877 62.1738 40.7473 62.7295C40.3921 62.2448 39.9374 61.9116 39.383 61.7297C38.6825 60.7649 38.4757 59.6819 38.7629 58.4804C39.5202 56.5513 40.8016 55.0931 42.6077 54.1063C47.22 51.7639 52.0984 50.9308 57.2428 51.6069C64.5908 52.0465 71.1642 54.5043 76.9629 58.9803C77.18 62.1683 76.0637 64.7928 73.6142 66.8535C75.0594 66.2922 76.4651 65.5838 77.8311 64.729Z" fill="#C7DE64"/>
<path fill-rule="evenodd" clip-rule="evenodd" d="M61.7077 59.2302C59.8453 59.1147 58.0261 59.2397 56.2505 59.6051C58.3615 59.6479 60.4285 59.7728 62.4518 59.9801C60.4657 59.9386 58.4813 59.9801 56.4986 60.105C56.0318 60.1545 55.6185 60.2795 55.2583 60.4799C52.6416 60.9233 50.4092 62.0898 48.5609 63.9792C48.5979 63.7162 48.5567 63.4663 48.4369 63.2293C48.0328 63.1454 47.6608 63.3118 47.3207 63.7292C47.9242 62.6625 48.7509 61.7877 49.8012 61.1048C53.5986 59.1475 57.5675 58.5226 61.7077 59.2302Z" fill="#1B5523"/>
<path fill-rule="evenodd" clip-rule="evenodd" d="M63.9402 59.4802C67.5369 59.8681 70.7616 61.1595 73.6142 63.3543C70.5386 61.6972 67.2313 60.6557 63.6921 60.23C63.6921 60.1468 63.6921 60.0633 63.6921 59.9801C64.1949 60.0205 64.691 59.9788 65.1804 59.8551C64.7136 59.8056 64.3003 59.6806 63.9402 59.4802Z" fill="#295D23"/>
<path fill-rule="evenodd" clip-rule="evenodd" d="M88.4973 53.2316C88.5799 53.2316 88.6628 53.2316 88.7454 53.2316C88.4065 55.8292 87.4555 58.162 85.8928 60.23C87.069 58.0537 87.9372 55.721 88.4973 53.2316Z" fill="#76AF5F"/>
<path fill-rule="evenodd" clip-rule="evenodd" d="M78.5752 48.9825C78.3282 52.6042 78.2456 56.2701 78.3272 59.9801C78.1617 58.6471 77.9965 57.3139 77.8311 55.981C77.7708 53.1406 77.8534 50.3077 78.0791 47.4828C78.5998 46.1611 79.3854 44.9946 80.4356 43.9836C80.477 44.0668 80.5182 44.1503 80.5596 44.2335C79.5538 45.6765 78.8922 47.2596 78.5752 48.9825Z" fill="#B2D76E"/>
<path fill-rule="evenodd" clip-rule="evenodd" d="M46.0804 47.4828C46.742 47.4828 47.4033 47.4828 48.0648 47.4828C49.635 47.6183 51.2062 47.785 52.7778 47.9827C51.8995 48.1577 51.0313 48.3244 50.1733 48.4826C49.8798 48.1749 49.5906 48.1749 49.3051 48.4826C49.8672 48.6861 50.4461 48.811 51.0415 48.8575C50.7934 48.9407 50.5454 49.0242 50.2973 49.1075C54.3738 49.3144 58.4252 49.6476 62.4519 50.1072C62.3693 50.024 62.2864 49.9405 62.2038 49.8573C61.6085 49.8108 61.0295 49.6858 60.4674 49.4824C61.0791 49.3267 61.6578 49.1182 62.2038 48.8575C60.8055 49.0055 59.3998 49.0887 57.9869 49.1075C58.8246 48.9945 59.6516 48.828 60.4674 48.6076C59.8364 48.3346 59.1748 48.1679 58.483 48.1077C58.3451 48.012 58.2625 47.887 58.235 47.7328C65.2367 48.9075 71.4795 51.7401 76.9629 56.2309C77.1284 56.8975 77.1284 57.5639 76.9629 58.2305C70.0517 52.6112 62.114 49.7786 53.1499 49.7323C48.2251 49.4416 43.7187 50.6496 39.6311 53.3565C37.9312 54.7412 36.9801 56.5323 36.7785 58.7303C36.3774 58.1647 35.9227 57.6648 35.4142 57.2307C34.6958 55.7665 34.8199 54.3501 35.7863 52.9816C37.0233 51.4662 38.4702 50.2165 40.1272 49.2324C42.0029 48.2714 43.9874 47.688 46.0804 47.4828Z" fill="#C4DB67"/>
<path fill-rule="evenodd" clip-rule="evenodd" d="M88.7454 53.2315C88.6628 53.2315 88.5799 53.2315 88.4973 53.2315C88.6017 52.3067 88.7672 51.3902 88.9934 50.4821C89.2596 51.4489 89.1767 52.3655 88.7454 53.2315Z" fill="#3E8041"/>
<path fill-rule="evenodd" clip-rule="evenodd" d="M48.0648 44.9834C49.3877 44.9834 50.7108 44.9834 52.0337 44.9834C53.612 45.0883 55.1829 45.2551 56.7467 45.4833C64.2051 46.8262 70.8199 49.9088 76.5908 54.7312C76.661 54.9284 76.785 55.0951 76.9629 55.2311C77.167 53.1873 77.1256 51.1878 76.8389 49.2324C73.9329 48.3319 70.9563 47.7903 67.909 47.6078C67.0703 47.2731 66.2436 46.9399 65.4285 46.608C69.5561 45.9099 73.6075 46.2014 77.583 47.4828C77.7621 47.3783 77.8861 47.2119 77.9551 46.9829C78.0702 47.1314 78.1116 47.2981 78.0791 47.4828C77.8534 50.3077 77.7708 53.1406 77.8311 55.981C77.7899 57.899 77.8311 59.8154 77.9551 61.7297C78.0642 61.1383 78.1883 60.5552 78.3272 59.9801C78.2456 56.2701 78.3282 52.6042 78.5752 48.9825C78.6167 53.2323 78.5752 57.4814 78.4512 61.7297C78.3746 62.0461 78.2505 62.3378 78.0791 62.6045C78.4167 63.0004 78.5822 63.4588 78.5752 63.9792C78.4098 64.3124 78.1617 64.5623 77.8311 64.729C76.4651 65.5838 75.0593 66.2922 73.6142 66.8536C76.0637 64.7928 77.1799 62.1683 76.9629 58.9803C71.1642 54.5043 64.5908 52.0466 57.2428 51.6069C52.0984 50.9308 47.22 51.7639 42.6077 54.1064C40.8016 55.0931 39.5202 56.5513 38.7629 58.4804C38.4756 59.6819 38.6825 60.7649 39.383 61.7297C38.8909 61.3645 38.3948 61.1981 37.8947 61.2298C38.2861 60.2278 38.5342 59.1862 38.6389 58.1055C38.0468 57.8615 37.7573 57.4034 37.7707 56.7308C37.4202 57.5221 37.2961 58.3134 37.3986 59.1053C36.7244 58.9743 36.0628 58.7661 35.4142 58.4804C35.4142 58.0637 35.4142 57.6473 35.4142 57.2307C35.9227 57.6648 36.3774 58.1647 36.7785 58.7303C36.9801 56.5323 37.9312 54.7412 39.6311 53.3565C43.7187 50.6496 48.2251 49.4416 53.1499 49.7323C62.114 49.7786 70.0517 52.6112 76.9629 58.2305C77.1283 57.5639 77.1283 56.8975 76.9629 56.2309C71.4795 51.7401 65.2367 48.9075 58.235 47.7328C56.7613 47.4493 55.273 47.2826 53.77 47.2329C52.7399 47.0664 51.6648 46.9832 50.5454 46.9829C48.9953 46.9314 47.507 47.0979 46.0804 47.4828C43.9874 47.688 42.0029 48.2714 40.1272 49.2324C39.9577 48.8135 39.6268 48.6468 39.135 48.7325C39.0948 48.2259 39.1362 47.726 39.259 47.2329C40.0083 48.2574 40.2976 48.0909 40.1272 46.733C40.8078 46.796 41.428 46.6293 41.9876 46.2331C42.3646 46.4848 42.7781 46.6513 43.2278 46.733C43.9926 46.3438 44.3646 46.5105 44.3441 47.2329C47.5536 46.874 50.7783 46.624 54.0181 46.483C51.9779 46.1544 49.952 46.1544 47.9408 46.483C47.6503 46.1349 47.2783 45.9264 46.8246 45.8582C48.8916 45.7749 50.9589 45.6915 53.0259 45.6082C51.3694 45.326 49.7159 45.1178 48.0648 44.9834Z" fill="#165527"/>
<path fill-rule="evenodd" clip-rule="evenodd" d="M62.4519 59.9801C62.8654 59.9801 63.2786 59.9801 63.6921 59.9801C63.6921 60.0633 63.6921 60.1468 63.6921 60.23C60.8762 60.1983 58.0651 60.2815 55.2583 60.48C55.6185 60.2795 56.0318 60.1545 56.4986 60.105C58.4813 59.9801 60.4657 59.9386 62.4519 59.9801Z" fill="#B0D26F"/>
<path fill-rule="evenodd" clip-rule="evenodd" d="M61.7077 59.2303C62.5047 59.1528 63.2488 59.236 63.9402 59.4802C64.3003 59.6807 64.7136 59.8056 65.1804 59.8551C64.691 59.9789 64.1949 60.0206 63.6921 59.9801C63.2786 59.9801 62.8654 59.9801 62.4518 59.9801C60.4285 59.7729 58.3615 59.6479 56.2505 59.6052C58.0261 59.2398 59.8453 59.1148 61.7077 59.2303Z" fill="#0D502C"/>
<path fill-rule="evenodd" clip-rule="evenodd" d="M77.8311 55.9809C77.9965 57.3139 78.1617 58.6471 78.3272 59.9801C78.1882 60.5552 78.0642 61.1383 77.9551 61.7297C77.8311 59.8154 77.7899 57.899 77.8311 55.9809Z" fill="#6F9E45"/>
<path fill-rule="evenodd" clip-rule="evenodd" d="M64.6843 55.2311C69.186 55.8395 73.1136 57.6723 76.4668 60.7299C76.6322 60.8966 76.6322 61.0631 76.4668 61.2298C75.5857 60.4252 74.6349 59.7171 73.6142 59.1053C70.1219 57.3899 66.4837 56.2651 62.6999 55.731C63.6132 55.7722 64.5226 55.7308 65.4285 55.606C65.1216 55.548 64.8736 55.4231 64.6843 55.2311Z" fill="#225824"/>
<path fill-rule="evenodd" clip-rule="evenodd" d="M49.3051 55.481C49.0823 55.6455 48.8343 55.812 48.5609 55.9809C48.9744 56.0642 49.3877 56.1477 49.8012 56.2309C51.0268 55.9582 52.2671 55.7915 53.522 55.731C51.9702 56.1439 50.3993 56.6021 48.809 57.1057C46.3354 58.0625 44.351 59.6039 42.8557 61.7297C42.8113 61.2033 42.5633 60.7869 42.1116 60.48C41.9161 60.7974 41.6681 61.0473 41.3674 61.2298C41.6061 60.4157 41.9781 59.6659 42.4837 58.9803C44.4021 57.1182 46.6757 55.9517 49.3051 55.481Z" fill="#165423"/>
<path fill-rule="evenodd" clip-rule="evenodd" d="M61.7077 54.7312C62.7654 54.6922 63.7576 54.8589 64.6843 55.2311C64.8736 55.4231 65.1216 55.548 65.4285 55.606C64.5226 55.7308 63.6132 55.7722 62.6999 55.731C62.6173 55.731 62.5345 55.731 62.4519 55.731C62.4243 55.5768 62.3417 55.4518 62.2038 55.3561C59.4752 55.1894 56.7467 55.1894 54.0181 55.3561C53.8802 55.4518 53.7976 55.5768 53.77 55.731C53.6874 55.731 53.6046 55.731 53.522 55.731C52.2671 55.7915 51.0268 55.9582 49.8012 56.2309C49.3877 56.1477 48.9744 56.0642 48.5609 55.9809C48.8343 55.812 49.0823 55.6455 49.3051 55.4811C53.3992 54.8257 57.5335 54.5758 61.7077 54.7312Z" fill="#0E5531"/>
<path fill-rule="evenodd" clip-rule="evenodd" d="M62.4519 55.731C59.5558 55.4293 56.6618 55.4293 53.77 55.731C53.7976 55.5768 53.8802 55.4518 54.0181 55.3561C56.7467 55.1894 59.4752 55.1894 62.2038 55.3561C62.3417 55.4518 62.4243 55.5768 62.4519 55.731Z" fill="#185016"/>
<path fill-rule="evenodd" clip-rule="evenodd" d="M61.7077 54.7312C57.5335 54.5758 53.3992 54.8257 49.3051 55.4811C52.9162 54.3841 56.637 54.0091 60.4674 54.3563C60.9343 54.4058 61.3475 54.5308 61.7077 54.7312Z" fill="#22591E"/>
<path fill-rule="evenodd" clip-rule="evenodd" d="M76.8389 49.2324C77.1256 51.1877 77.167 53.1873 76.9629 55.2311C76.785 55.0951 76.661 54.9284 76.5908 54.7312C76.8369 52.9446 76.9195 51.1118 76.8389 49.2324Z" fill="#85B15D"/>
<path fill-rule="evenodd" clip-rule="evenodd" d="M88.2493 42.4839C89.1755 47.9432 88.4728 53.1921 86.1408 58.2305C84.1911 62.4033 81.0905 65.3194 76.8389 66.9786C77.2392 66.2555 77.5699 65.5056 77.8311 64.729C78.1617 64.5623 78.4098 64.3124 78.5752 63.9792C79.7972 63.1242 80.9134 62.1244 81.9239 60.9799C85.7129 55.9837 87.6559 50.3185 87.7532 43.9836C87.9186 43.4837 88.0838 42.9838 88.2493 42.4839Z" fill="#F0F5F1"/>
<path fill-rule="evenodd" clip-rule="evenodd" d="M77.583 47.4828C73.6075 46.2014 69.5561 45.9099 65.4285 46.608C66.2436 46.9399 67.0703 47.2731 67.909 47.6078C70.9563 47.7903 73.9329 48.3319 76.8389 49.2324C76.9195 51.1118 76.8369 52.9446 76.5908 54.7312C70.8199 49.9088 64.2051 46.8262 56.7467 45.4833C56.5574 45.2913 56.3093 45.1663 56.0025 45.1083C56.0591 45.0086 56.1419 44.9671 56.2506 44.9834C57.0773 44.9834 57.9043 44.9834 58.7311 44.9834C59.2716 45.1231 59.8091 45.2898 60.3434 45.4833C66.2356 43.5884 72.1477 43.5052 78.0791 45.2333C77.8408 45.9647 77.6756 46.7145 77.583 47.4828Z" fill="#C6DC65"/>
<path fill-rule="evenodd" clip-rule="evenodd" d="M48.0648 47.4828C49.9208 47.2348 51.8223 47.1516 53.77 47.2328C55.273 47.2826 56.7613 47.4493 58.235 47.7327C58.2625 47.887 58.3451 48.0119 58.483 48.1077C59.1748 48.1679 59.8364 48.3346 60.4674 48.6075C59.6516 48.828 58.8246 48.9945 57.9869 49.1074C59.3998 49.0887 60.8055 49.0055 62.2038 48.8575C61.6578 49.1182 61.0791 49.3266 60.4674 49.4824C61.0295 49.6858 61.6085 49.8108 62.2038 49.8573C62.2864 49.9405 62.3693 50.024 62.4519 50.1072C58.4252 49.6476 54.3738 49.3144 50.2973 49.1074C50.5454 49.0242 50.7934 48.9407 51.0415 48.8575C50.4461 48.811 49.8672 48.686 49.3051 48.4826C49.5906 48.1749 49.8798 48.1749 50.1733 48.4826C51.0313 48.3244 51.8995 48.1576 52.7778 47.9827C51.2062 47.785 49.635 47.6183 48.0648 47.4828Z" fill="#CCDF63"/>
<path fill-rule="evenodd" clip-rule="evenodd" d="M53.77 47.2329C51.8223 47.1516 49.9208 47.2349 48.0648 47.4828C47.4033 47.4828 46.742 47.4828 46.0804 47.4828C47.507 47.0979 48.9953 46.9314 50.5454 46.9829C51.6648 46.9832 52.7399 47.0664 53.77 47.2329Z" fill="#9CBD62"/>
<path fill-rule="evenodd" clip-rule="evenodd" d="M88.2493 42.4839C88.0838 42.9838 87.9186 43.4837 87.7532 43.9836C87.7122 43.1463 87.7537 42.3132 87.8772 41.4842C88.0734 41.7953 88.1974 42.1285 88.2493 42.4839Z" fill="#8EA293"/>
<path fill-rule="evenodd" clip-rule="evenodd" d="M87.009 36.2353C87.1437 36.2503 87.2263 36.3335 87.2571 36.4853C86.5362 37.8787 85.544 39.0452 84.2804 39.9845C84.1978 39.9013 84.115 39.8178 84.0324 39.7345C85.1159 38.643 86.1081 37.4768 87.009 36.2353Z" fill="#8EBD65"/>
<path fill-rule="evenodd" clip-rule="evenodd" d="M68.6532 69.7279C66.4118 70.3323 64.0967 70.5822 61.7077 70.4778C59.8304 70.5302 58.0115 70.3638 56.2505 69.9779C60.3975 70.3653 64.5315 70.2818 68.6532 69.7279Z" fill="#B2D370"/>
<path fill-rule="evenodd" clip-rule="evenodd" d="M17.3064 86.4743C18.3025 86.3243 19.1707 86.5742 19.9109 87.2241C19.9935 90.1402 20.0764 93.0561 20.159 95.9722C20.4239 97.1159 21.1269 97.6158 22.2674 97.4718C23.3063 97.6333 24.0092 97.2169 24.3759 96.2221C24.4585 93.2228 24.5413 90.2234 24.6239 87.2241C24.8305 87.0159 25.0374 86.8074 25.244 86.5992C25.9837 86.4748 26.7279 86.433 27.4765 86.4743C27.5179 89.5581 27.4765 92.6407 27.3525 95.7222C26.8864 98.6701 25.15 100.087 22.1434 99.9713C20.1788 99.9818 18.6905 99.1485 17.6784 97.4718C17.3188 93.8239 17.1947 90.1582 17.3064 86.4743Z" fill="#15552D"/>
<path fill-rule="evenodd" clip-rule="evenodd" d="M3.16743 86.2243C5.17987 86.1278 7.16429 86.2945 9.12068 86.7242C9.14176 87.5358 8.89371 88.2441 8.37652 88.8487C6.99834 88.5843 5.59288 88.5008 4.15964 88.5988C3.04489 89.2154 2.87969 90.0485 3.66353 91.0982C5.09752 91.6124 6.50298 92.1955 7.88042 92.8479C9.51706 94.391 9.80629 96.1824 8.7486 98.2217C8.26787 98.873 7.64774 99.3312 6.88821 99.5964C4.5585 100.189 2.28461 100.065 0.0667768 99.2215C-0.120502 98.4724 0.0861249 97.8475 0.686907 97.3469C2.33323 97.4571 3.98699 97.4571 5.64795 97.3469C6.51861 96.585 6.60121 95.752 5.896 94.8474C4.36626 94.278 2.87795 93.6114 1.43106 92.8479C0.506573 91.5374 0.217344 90.0795 0.562881 88.4738C1.18028 87.3911 2.04846 86.6412 3.16743 86.2243Z" fill="#16562E"/>
<path fill-rule="evenodd" clip-rule="evenodd" d="M112.31 86.2243C114.725 85.8441 116.916 86.344 118.884 87.724C119.345 88.3208 119.676 88.9872 119.876 89.7235C120.041 91.8063 120.041 93.8894 119.876 95.9722C119.401 98.2002 118.037 99.4914 115.783 99.8463C110.734 100.341 108.336 98.0087 108.59 92.8478C108.398 89.772 109.638 87.5643 112.31 86.2243Z" fill="#13552D"/>
<path fill-rule="evenodd" clip-rule="evenodd" d="M113.303 88.4738C115.5 88.1404 116.782 89.0569 117.147 91.2232C117.417 93.135 117.169 94.9681 116.403 96.722C115.447 97.7645 114.331 97.9727 113.054 97.3469C112.481 96.9377 112.109 96.3961 111.938 95.7222C111.306 93.4805 111.471 91.3144 112.434 89.2236C112.811 89.0579 113.1 88.808 113.303 88.4738Z" fill="#F5F8F6"/>
<path fill-rule="evenodd" clip-rule="evenodd" d="M65.9246 98.9715C65.3074 99.4434 64.5633 99.6101 63.6921 99.4714C63.0236 98.7908 62.6101 97.9575 62.4519 96.972C60.9705 96.681 59.4822 96.6395 57.9869 96.847C57.6791 97.6278 57.3896 98.4194 57.1187 99.2215C56.2161 99.7528 55.2653 99.8361 54.2661 99.4714C55.4895 95.5645 56.6886 91.6486 57.8629 87.724C58.0981 87.2066 58.4701 86.8317 58.9791 86.5992C59.9713 86.4325 60.9635 86.4325 61.9558 86.5992C62.0798 86.7242 62.2038 86.8492 62.3278 86.9742C63.6011 90.955 64.8002 94.9541 65.9246 98.9715Z" fill="#13542B"/>
<path fill-rule="evenodd" clip-rule="evenodd" d="M61.7077 94.2225C60.7155 94.5557 59.7233 94.5557 58.7311 94.2225C59.1272 92.4422 59.6233 90.6926 60.2194 88.9737C60.908 90.6653 61.4041 92.4149 61.7077 94.2225Z" fill="#FEFEFE"/>
<path fill-rule="evenodd" clip-rule="evenodd" d="M46.5765 86.7242C46.5765 91.0565 46.5765 95.3891 46.5765 99.7214C45.7498 99.7214 44.9228 99.7214 44.096 99.7214C43.4342 99.2625 42.8969 98.6793 42.4837 97.9717C41.2814 95.549 40.0825 93.1328 38.8869 90.7233C38.872 90.5876 38.7894 90.5044 38.6389 90.4734C38.3911 93.2178 38.3085 95.9672 38.3908 98.7216C38.3908 99.2215 38.1428 99.4714 37.6466 99.4714C37.1505 99.4714 36.6544 99.4714 36.1583 99.4714C36.1583 95.4723 36.1583 91.4732 36.1583 87.474C36.2474 87.0064 36.4954 86.6315 36.9025 86.3493C37.7111 86.1533 38.4967 86.1951 39.259 86.4743C40.8299 89.4736 42.4011 92.473 43.972 95.4723C44.0546 92.6397 44.1374 89.8068 44.22 86.9742C44.9736 86.426 45.7589 86.3425 46.5765 86.7242Z" fill="#12562C"/>
<path fill-rule="evenodd" clip-rule="evenodd" d="M58.7311 94.2226C59.7233 94.5557 60.7155 94.5557 61.7077 94.2226C61.8424 94.2376 61.925 94.3208 61.9557 94.4725C60.7981 94.8057 59.6407 94.8057 58.483 94.4725C58.5138 94.3208 58.5964 94.2376 58.7311 94.2226Z" fill="#689378"/>
<path fill-rule="evenodd" clip-rule="evenodd" d="M36.1583 87.474C36.1583 91.4732 36.1583 95.4723 36.1583 99.4714C36.6544 99.4714 37.1505 99.4714 37.6467 99.4714C37.124 99.7134 36.5451 99.7968 35.9103 99.7214C35.8284 95.595 35.9113 91.5127 36.1583 87.474Z" fill="#527160"/>
<path fill-rule="evenodd" clip-rule="evenodd" d="M38.8869 90.7233C38.7215 93.3895 38.5563 96.0554 38.3908 98.7216C38.3085 95.9672 38.3911 93.2178 38.6389 90.4734C38.7894 90.5044 38.872 90.5876 38.8869 90.7233Z" fill="#49785C"/>
<path fill-rule="evenodd" clip-rule="evenodd" d="M95.6908 94.9724C95.1682 94.7304 94.5892 94.647 93.9545 94.7224C93.9545 96.0554 93.9545 97.3886 93.9545 98.7216C93.9361 99.1992 93.6881 99.4909 93.2103 99.5964C92.6373 99.7206 92.0586 99.7621 91.4739 99.7214C91.4325 95.638 91.4739 91.5556 91.598 87.474C91.8991 87.0869 92.2712 86.7954 92.7142 86.5992C94.368 86.4325 96.0215 86.4325 97.6752 86.5992C99.1983 86.7604 100.232 87.552 100.776 88.9737C101.308 91.3279 100.605 93.1608 98.6675 94.4725C99.6597 96.1389 100.652 97.805 101.644 99.4714C100.631 99.8106 99.6391 99.7691 98.6675 99.3464C97.5165 97.9805 96.5243 96.5223 95.6908 94.9724Z" fill="#16572E"/>
<path fill-rule="evenodd" clip-rule="evenodd" d="M94.2025 88.7238C95.1158 88.6825 96.0252 88.724 96.9311 88.8487C97.7643 89.1324 98.0949 89.7155 97.9233 90.5983C98.0272 91.3434 97.7792 91.9266 97.1791 92.348C96.2209 92.6864 95.2287 92.8114 94.2025 92.7229C94.2025 91.3899 94.2025 90.0567 94.2025 88.7238Z" fill="#F7FAF9"/>
<path fill-rule="evenodd" clip-rule="evenodd" d="M46.5765 86.7242C46.8238 91.0963 46.9064 95.512 46.8246 99.9713C45.8644 100.05 44.9548 99.9668 44.096 99.7214C44.9228 99.7214 45.7498 99.7214 46.5765 99.7214C46.5765 95.3891 46.5765 91.0565 46.5765 86.7242Z" fill="#88A593"/>
<path fill-rule="evenodd" clip-rule="evenodd" d="M95.6908 94.9724C95.1947 94.9724 94.6986 94.9724 94.2025 94.9724C94.2821 96.2709 94.1993 97.5206 93.9545 98.7216C93.9545 97.3886 93.9545 96.0554 93.9545 94.7224C94.5892 94.647 95.1682 94.7304 95.6908 94.9724Z" fill="#6C957C"/>
<path fill-rule="evenodd" clip-rule="evenodd" d="M76.8389 86.2243C78.862 86.1031 80.8464 86.2698 82.7921 86.7242C82.7616 87.4425 82.5136 88.0674 82.048 88.5988C80.6413 88.617 79.2356 88.617 77.8311 88.5988C76.6315 89.0534 75.9288 89.9282 75.7227 91.2232C75.4776 93.0148 75.6428 94.7644 76.2188 96.4721C76.5082 96.7637 76.7975 97.0552 77.0869 97.3469C78.2416 97.4716 79.399 97.5133 80.5597 97.4718C80.5597 96.4721 80.5597 95.4723 80.5597 94.4725C78.9059 94.6392 78.1617 93.8894 78.3272 92.223C79.6528 92.1815 80.9757 92.2232 82.296 92.348C82.5232 92.4414 82.7301 92.5664 82.9162 92.7229C83.0816 94.7224 83.0816 96.722 82.9162 98.7216C82.7095 98.9298 82.5027 99.1382 82.296 99.3464C74.4534 101.109 71.3527 97.9842 72.9941 89.9735C73.6249 88.0162 74.9066 86.7664 76.8389 86.2243Z" fill="#14552D"/>
<path fill-rule="evenodd" clip-rule="evenodd" d="M65.9246 98.9715C66.1488 99.1487 66.2314 99.3987 66.1726 99.7213C65.294 99.7996 64.4673 99.7161 63.6921 99.4714C64.5633 99.6101 65.3074 99.4434 65.9246 98.9715Z" fill="#7E9988"/>
</svg>
